<svg id="Camada_1" data-name="Camada 1" xmlns="http://www.w3.org/2000/svg" viewBox="0 0 415.43 101.68"><defs><style>.cls-1,.cls-3,.cls-4{fill:none;stroke:#0090c9;stroke-miterlimit:10;}.cls-2{fill:#0090c9;}.cls-3{stroke-width:0.4px;}.cls-4{stroke-width:0.79px;}</style></defs><line class="cls-1" y1="93.54" x2="219.16" y2="93.54"/><line class="cls-1" x1="265.76" y1="93.54" x2="415.43" y2="93.54"/><path class="cls-2" d="M264.07,78a32.22,32.22,0,0,1,8.72-6.12,50.16,50.16,0,0,1,10.48-4.34c7.68-2,15.25,1,22.05,4.45a31,31,0,0,1,8.38,6,29,29,0,0,1,5.85,9.62,25.12,25.12,0,0,1,1.7,11,21.48,21.48,0,0,1-4.12,10.5c-2.72,3.9-6.41,6.76-9.74,10.09a.33.33,0,0,0,.47.47c2.44-2.44,5.11-4.6,7.42-7.19a29,29,0,0,0,5.32-8.32c2.69-6.5,1.18-13.9-1.87-20s-8-10.31-14.17-13.28c-6.32-3.06-13-5.53-20.12-4.27-4,.7-7.64,2.55-11.22,4.32a33.35,33.35,0,0,0-9.61,6.61c-.29.3.17.77.46.46" transform="translate(-37.48 -55.72)"/><path class="cls-2" d="M302.27,123.44a18.85,18.85,0,0,0-1.54,10.47c.55,3.55,1.95,7.13,1.12,10.76-1.15,5.09-6.83,6.86-11.33,7.7a61.07,61.07,0,0,1-20,.67c-2-.3-3.92-.69-5.87-1a17.76,17.76,0,0,1-5.71-1.74c-3-1.68-5.11-4.76-6.73-7.69-2.4-4.34-3.12-9.62-3.57-14.48-.21-2.28-.31-4.57-.34-6.86,0-2.51-.27-5.15.6-7.54.15-.4-.49-.57-.63-.18-1.09,3-.69,6.46-.59,9.55a79.39,79.39,0,0,0,.86,9.62c1,6.26,3.26,12.43,8.1,16.73,2.64,2.34,5.93,2.91,9.3,3.47a71.78,71.78,0,0,0,11.79,1.33,59.25,59.25,0,0,0,16.39-2c4-1.18,7.65-3.6,8.49-7.93.59-3.05-.38-6.24-1-9.21a17.87,17.87,0,0,1-.37-5.74,21.63,21.63,0,0,1,1.67-5.71c.16-.39-.48-.56-.64-.17" transform="translate(-37.48 -55.72)"/><path class="cls-2" d="M307.3,108.57c-.18,5.12,6.07,7.89,10.39,8.12V116c-2.24-.09-4.37-1.42-6.18-2.65-2.15-1.45-2.54-3.38-3.41-5.66a.34.34,0,0,0-.64,0c-1.68,6.38,5.41,7.63,9.84,9.26.4.14.57-.49.18-.64-4.05-1.48-10.94-2.54-9.38-8.44h-.64c.9,2.33,1.32,4.34,3.45,5.87,1.94,1.39,4.34,2.82,6.78,2.92a.33.33,0,0,0,0-.66c-4-.21-9.9-2.73-9.73-7.46a.33.33,0,0,0-.66,0" transform="translate(-37.48 -55.72)"/><path class="cls-3" d="M302.33,93.73a14.78,14.78,0,1,0-14.78,14.78A14.77,14.77,0,0,0,302.33,93.73Z" transform="translate(-37.48 -55.72)"/><path class="cls-2" d="M279.79,97.08a3.55,3.55,0,1,0-3.55-3.55,3.55,3.55,0,0,0,3.55,3.55m-1.43-5.8a1,1,0,1,1-1,1,1,1,0,0,1,1-1" transform="translate(-37.48 -55.72)"/><path class="cls-2" d="M300.62,111.91l.24.18.16-.27a13.32,13.32,0,0,0-1.49-.63,10.91,10.91,0,0,0-2.06-.21c-1,0-2.39.14-3,1-.78,1.11-.28,2.59.39,3.63,1,1.54,3,2.23,4.49,3.19s2.15,2.72,3.16,4.23a2.54,2.54,0,0,0,3.21,1.06c3.2-1.1,1.44-5.84.5-7.88-.09-.19-.37,0-.28.17,1,2.22,2.72,7.48-1.39,7.62-1.4,0-2.14-1.72-2.68-2.74a7.06,7.06,0,0,0-1.85-2.38c-1.12-.86-2.42-1.42-3.58-2.21s-2.65-2.8-1.8-4.36c.58-1.08,2.33-1.06,3.37-1a11.42,11.42,0,0,1,1.92.29c.37.08.65.41,1,.52a.16.16,0,0,0,.16-.27c-.1-.09-.18-.14-.3-.23s-.34.16-.17.28" transform="translate(-37.48 -55.72)"/><path class="cls-2" d="M301.77,122a8.08,8.08,0,0,1-2.91,3.43,1.92,1.92,0,0,1-2.53-.24,1.62,1.62,0,0,1,0-2.42c.18-.12,0-.41-.16-.29-1.64,1.1-.3,3.34,1.24,3.65,1.93.39,4-2.48,4.61-4,.08-.19-.2-.36-.28-.17" transform="translate(-37.48 -55.72)"/><path class="cls-2" d="M307.35,117.05c1-1,.33-3.12-1.39-4.84s-3.89-2.34-4.84-1.39-.33,3.12,1.39,4.84,3.89,2.35,4.84,1.39" transform="translate(-37.48 -55.72)"/><path class="cls-2" d="M299.59,118.91c-1.54,1.27-2.65,3.35-4.65,4a1.57,1.57,0,0,1-1.74-.72,2.18,2.18,0,0,1,.07-2.52,8,8,0,0,1,3.09-2.79.16.16,0,0,0-.16-.28c-2,1.09-5.62,4.51-2.51,6.5,2.15,1.37,4.84-2.88,6.13-4,.16-.14-.07-.37-.23-.23" transform="translate(-37.48 -55.72)"/><path class="cls-2" d="M278.43,68.4c-1.52-3.14-.66-6.68,2.86-7.81a6.29,6.29,0,0,1,4.73.5c1.79.91,3.91,3.18,3.72,5.29,0,.43.62.42.66,0,.21-2.25-1.79-4.38-3.54-5.56a7.05,7.05,0,0,0-5.5-.94c-4.17,1-5.19,5.36-3.49,8.85.18.38.75,0,.56-.33" transform="translate(-37.48 -55.72)"/><path class="cls-2" d="M284.92,66.91a1.76,1.76,0,1,0-2.48-.23,1.76,1.76,0,0,0,2.48.23" transform="translate(-37.48 -55.72)"/><path class="cls-2" d="M317.73,82.51c2.1-.9,5.16-1.22,6.56,1,1.49,2.33,0,6.69-3.26,6.07-.42-.07-.6.56-.18.64,3.62.69,5.34-3.45,4.34-6.35-1.13-3.24-5.2-3-7.79-1.89-.39.17,0,.73.33.57" transform="translate(-37.48 -55.72)"/><path class="cls-2" d="M321.48,86a1.21,1.21,0,1,0-1.21,1.21A1.21,1.21,0,0,0,321.48,86" transform="translate(-37.48 -55.72)"/><path class="cls-4" d="M243.29,83.38A12.8,12.8,0,1,0,230.5,96.17,12.8,12.8,0,0,0,243.29,83.38Z" transform="translate(-37.48 -55.72)"/><path class="cls-4" d="M251.89,82.43a20.81,20.81,0,1,0-20.8,20.8A20.8,20.8,0,0,0,251.89,82.43Z" transform="translate(-37.48 -55.72)"/><path class="cls-3" d="M255.3,108.63c0-1.63-1.92-3-4.27-3s-4.28,1.33-4.28,3,1.92,3,4.28,3S255.3,110.26,255.3,108.63Z" transform="translate(-37.48 -55.72)"/><path class="cls-3" d="M264.78,88.09c-1.63.06-2.88,2-2.79,4.37s1.48,4.22,3.11,4.16,2.88-2,2.79-4.38S266.41,88,264.78,88.09Z" transform="translate(-37.48 -55.72)"/><path class="cls-2" d="M230.73,103.43c2,5.12,10.07,2.21,13.57.79a30.11,30.11,0,0,0,7.12-4c3.08-2.4,4.61-6.59,6-10.09.07-.18-.21-.29-.3-.13-1,1.82-3,3-4.75,4a21.8,21.8,0,0,1-5.68,2.33c-.21,0-.12.37.09.32a23.14,23.14,0,0,0,5.76-2.36c1.82-1,3.82-2.27,4.86-4.12l-.3-.13c-1.34,3.34-2.81,7.3-5.63,9.7a26.68,26.68,0,0,1-6.51,3.8c-3.34,1.49-11.94,4.85-13.93-.23-.08-.19-.4-.11-.32.09" transform="translate(-37.48 -55.72)"/><path class="cls-2" d="M230.72,103.63c.73,2,1.49,4.38,3.81,5,2.16.55,5.58-2.06,7.06.29l.19-.48a12.17,12.17,0,0,1-5.46-.31c-.42-.09-.59.54-.18.64a13,13,0,0,0,5.82.3.33.33,0,0,0,.2-.48c-1.1-1.74-3-1.32-4.68-.91-1.33.33-2.58.61-3.82-.14s-1.81-2.69-2.3-4.06c-.14-.39-.78-.22-.64.18" transform="translate(-37.48 -55.72)"/><path class="cls-2" d="M241.49,109a4.09,4.09,0,0,1,1,3.49.34.34,0,0,0,.23.41c4,.79,8.14,1.33,11.93-.4a13.68,13.68,0,0,0,4.91-4.19,33.46,33.46,0,0,1,2.72-3.33,33.23,33.23,0,0,1,3.53-2.84c1.92-1.43,3.92-2.88,4.93-5.11s.73-4.52.47-6.72c-.45-3.75-1.51-8.14-5.74-9-.41-.08-.59.55-.17.64,4.33.9,5,5.86,5.38,9.57a9.62,9.62,0,0,1-1.2,6.46c-1.36,2.08-3.84,3.43-5.76,4.93a22.44,22.44,0,0,0-4.43,4.7,13.81,13.81,0,0,1-4.7,4.2c-3.57,1.89-7.91,1.23-11.69.47.07.14.15.27.23.41a4.82,4.82,0,0,0-1.16-4.14c-.28-.31-.74.15-.46.47" transform="translate(-37.48 -55.72)"/><path class="cls-2" d="M264.91,81.49c-.66,2.11-3-.09-3.67-1a4.48,4.48,0,0,1-.91-2.23c0-.58.07-1.67.61-2,.84-.56,2.31,1.79,2.63,2.26a14.16,14.16,0,0,1,1.64,3.1c.07.2.39.12.32-.08-.36-1-4-7.85-5.24-4.93-.82,1.87.22,3.82,1.58,5.1,1,1,2.8,1.69,3.35-.09.07-.2-.25-.29-.31-.08" transform="translate(-37.48 -55.72)"/><path class="cls-2" d="M251.75,80.81c1.86.77,3.78,1.4,5.6,2.28a.17.17,0,0,0,.25-.15,7.08,7.08,0,0,0-1.33-4.6A14,14,0,0,0,254,76.4c-1.21-.94-2.43-1.86-3.57-2.88-.16-.14-.39.09-.23.23,1,.94,2.16,1.8,3.27,2.65,1.35,1,2.83,2,3.44,3.64a7.68,7.68,0,0,1,.39,2.17c.06.78-.62.17-1.06,0-1.44-.59-2.91-1.1-4.36-1.69-.19-.08-.28.24-.08.31" transform="translate(-37.48 -55.72)"/><path class="cls-2" d="M229.22,61.65c-.5-1.35-.86-4.12.74-4.79,2-.82,4.48-.32,6.57-.44l-.33-.33v5.8a.33.33,0,0,0,.66,0v-5.8a.33.33,0,0,0-.33-.33c-2.33.14-5.35-.51-7.43.81-1.44.92-1,3.93-.51,5.26.14.39.78.22.63-.18" transform="translate(-37.48 -55.72)"/><path class="cls-2" d="M236.25,56.57c.91,1.24,1.68,2.58,2.57,3.83A14,14,0,0,0,240,61.81c.26.3.6.3.4.65s-.18.82-.3,1.1.4.72.57.33c.56-1.29.71-1.58-.21-2.54a47.07,47.07,0,0,1-3.6-5.12c-.25-.34-.82,0-.57.34" transform="translate(-37.48 -55.72)"/><path class="cls-2" d="M245.6,67.85c1.19.21.14-1.65-.09-2-.06.17-.13.33-.19.49a7.54,7.54,0,0,1,3,0L248.1,66c0,1-.14,1.93-.15,2.9l.56-.23a14.92,14.92,0,0,0-1.61-1.12,3.56,3.56,0,0,0-1.37-.66c-.42-.05-.41.61,0,.66a3.12,3.12,0,0,1,1,.57,14.85,14.85,0,0,1,1.48,1,.33.33,0,0,0,.56-.23c0-1,.14-1.93.15-2.9a.33.33,0,0,0-.24-.32,8.55,8.55,0,0,0-3.38,0,.34.34,0,0,0-.2.49c.13.19.23.38.34.58l.15.33,0,.12c0,.19.12.19.3,0-.41-.08-.59.56-.17.63" transform="translate(-37.48 -55.72)"/><path class="cls-2" d="M248.2,66.4c.55.45,1.75,1.29,1.57,2.08a1.35,1.35,0,0,0,.26,1.13c.78.87,2.15.83,3.2,1.14a.33.33,0,0,0,.41-.32,22.86,22.86,0,0,0-.15-3.2l-.33.33c1.56.16,3.47-.14,4.76.92.95.79.69,2.9.92,4a3.25,3.25,0,0,0,1.32,1.82,10.71,10.71,0,0,1,3.24,3.74c.19.38.75,0,.57-.34a11,11,0,0,0-3.35-3.87c-1.25-1-1.29-2.16-1.42-3.73-.26-3.36-3.48-3-6-3.24a.33.33,0,0,0-.33.33,22.87,22.87,0,0,1,.16,3.2l.41-.31c-1.15-.35-3.47-.27-2.82-2a.34.34,0,0,0-.08-.32c-.61-.62-1.17-1.28-1.83-1.83-.33-.27-.8.2-.47.47" transform="translate(-37.48 -55.72)"/><path class="cls-2" d="M264.72,102.51c-1-.85-2.16-2-3.53-2.05a3.4,3.4,0,0,0-3,1.81,3.05,3.05,0,0,0,1.8,4.63.17.17,0,0,0,.09-.32c-1.95-.51-2.49-2.45-1.61-4.15a3,3,0,0,1,3-1.6,6.46,6.46,0,0,1,3,1.91c.15.14.39-.09.23-.23" transform="translate(-37.48 -55.72)"/><path class="cls-2" d="M264.27,102.78a90.2,90.2,0,0,1-1.83,10.55c-.5,2.2-.93,4.46-1.56,6.62-.55,1.86-1.55,3.81-3.72,3.86-1.32,0-3.24-.6-3.39-2.08-.13-1.22.65-2.51,1.2-3.53.2-.38-.36-.71-.57-.33-1,1.85-2.3,4.63.12,5.94,1.88,1,4.36.92,5.69-.89s1.72-4.43,2.22-6.7a125.13,125.13,0,0,0,2.5-13.44c.05-.43-.61-.42-.66,0" transform="translate(-37.48 -55.72)"/><path class="cls-2" d="M259,124.16c5.75,0,6.11-5.62,7.64-9.85.14-.4-.49-.58-.64-.18-1.4,3.9-1.65,9.4-7,9.37a.33.33,0,0,0,0,.66" transform="translate(-37.48 -55.72)"/><path class="cls-2" d="M268,110.1a39.5,39.5,0,0,1,2-11.66c.13-.41-.51-.58-.64-.18a40.1,40.1,0,0,0-2,11.84.33.33,0,0,0,.65,0" transform="translate(-37.48 -55.72)"/><path class="cls-2" d="M267.49,110c-1.08.61-5.24,3-2.46,4.17a2.12,2.12,0,0,0,2.82-1.08,3,3,0,0,0,.09-3c-.25-.34-.82,0-.57.33a2.39,2.39,0,0,1,0,2.19,1.52,1.52,0,0,1-2.25.83c-1.33-.67,2.19-2.6,2.73-2.9a.33.33,0,0,0-.33-.57" transform="translate(-37.48 -55.72)"/><path class="cls-2" d="M255.59,111.49c-1.76,1.21-3.08,4.35-1.51,6.24,1.07,1.28,2.79.62,3.87-.27a4.48,4.48,0,0,0,1.35-5.16c-1-2.43-3.5-1.68-4.74.07-.25.35.32.68.56.34a2.51,2.51,0,0,1,2.4-1.32c1,.19,1.4,1.45,1.48,2.31a4.05,4.05,0,0,1-1.51,3.29c-.75.66-2,1.21-2.85.39-1.46-1.47-.09-4.37,1.28-5.32.35-.24,0-.81-.33-.57" transform="translate(-37.48 -55.72)"/><path class="cls-2" d="M262.05,152.22a33,33,0,0,0,3.85,3.9c1,.73,2.58,1.66,3.86,1.13,1.79-.75-.51-3.82-1.23-4.5-.15-.15-.38.09-.23.23,1,.93,3.13,4.5.19,4-2.68-.44-4.45-3.2-6.21-5-.15-.16-.38.08-.23.23" transform="translate(-37.48 -55.72)"/><path class="cls-2" d="M299.47,149.47c1.06,1.29,1.65,2.85,3.42,3.25a.17.17,0,0,0,.19-.08,3.8,3.8,0,0,0,.37-3.41c-.35-1.34-1.43-2.88-1.26-4.3,0-.21-.31-.21-.33,0-.19,1.53,1,3.24,1.34,4.69a4.16,4.16,0,0,1,.08,1.92c-.22,1.11-1,.77-1.67.21a16.28,16.28,0,0,1-1.91-2.51c-.14-.16-.37.07-.23.23" transform="translate(-37.48 -55.72)"/><path class="cls-2" d="M309.61,118.5c.77.08,1.35,1.21,1.68,1.8a3,3,0,0,1,.37,2.8c-.51,1.05-1.83.07-2.3-.45-.78-.85-.91-2-1.44-3-.1-.19-.39,0-.29.16.68,1.25.81,2.75,2.07,3.62.61.43,1.66.78,2.16,0a3.06,3.06,0,0,0-.19-3.09c-.38-.77-1.1-2-2.06-2.14-.21,0-.21.31,0,.33" transform="translate(-37.48 -55.72)"/><path class="cls-2" d="M309.8,120.44a4.42,4.42,0,0,1,1.17,2.93.17.17,0,0,0,.33,0A4.79,4.79,0,0,0,310,120.2c-.15-.15-.38.08-.23.24" transform="translate(-37.48 -55.72)"/><path class="cls-2" d="M301.88,150.05a2.36,2.36,0,0,1,.46,2.28.16.16,0,0,0,.28.16,2.63,2.63,0,0,0-.46-2.61c-.12-.16-.41,0-.28.17" transform="translate(-37.48 -55.72)"/><path class="cls-2" d="M267.69,155a3.79,3.79,0,0,1,1.48,2.21c0,.21.36.12.32-.09a4.13,4.13,0,0,0-1.57-2.36c-.16-.13-.39.1-.23.24" transform="translate(-37.48 -55.72)"/><path class="cls-2" d="M308.22,109.26l-.06-.05a.17.17,0,0,0-.2,0c-.25.26,0,.87.09,1.16a8.53,8.53,0,0,0,1.68,2.86l.26-.2a10,10,0,0,1-1.52-3l-.3.12c.52,1.2.95,3.09,2.34,3.55.12.05.23-.08.2-.2a3.5,3.5,0,0,0-.91-1.46c-.59-.67-1-1.45-1.59-2.13-.1-.13-.32,0-.27.16a8,8,0,0,0,2.71,3.68c.16.13.4-.1.23-.24a7.6,7.6,0,0,1-2.62-3.53l-.28.16c.43.51.73,1.1,1.14,1.62a5.15,5.15,0,0,1,1.28,1.83l.2-.2c-1.25-.42-1.68-2.33-2.15-3.4-.07-.17-.36,0-.3.12a10.32,10.32,0,0,0,1.61,3.17c.12.15.37-.05.26-.2a18.63,18.63,0,0,1-1.25-1.8,4.4,4.4,0,0,1-.47-1.25,1.21,1.21,0,0,1-.05-.18l0-.14c0-.24,0-.3-.16-.18.17.13.33-.15.16-.28" transform="translate(-37.48 -55.72)"/><path class="cls-2" d="M309.67,118.14a2.6,2.6,0,0,0-.47-.09.17.17,0,0,0,0,.33,1.72,1.72,0,0,1,.38.08c.2.07.29-.25.09-.32" transform="translate(-37.48 -55.72)"/><path class="cls-2" d="M311,123.68l0,0a.17.17,0,0,0,.23-.24l0,0c-.15-.15-.38.08-.23.24" transform="translate(-37.48 -55.72)"/><path class="cls-2" d="M302.6,123.6a1,1,0,0,1,.19-.26l-.26-.2a1.69,1.69,0,0,0-.19.38c-.06.18.21.28.3.12a1.86,1.86,0,0,0,.19-.46c.06-.19-.2-.27-.3-.13a2.08,2.08,0,0,0-.27.51l.31.09a1.87,1.87,0,0,1,.16-.35c.11-.18-.17-.34-.29-.16a2,2,0,0,0-.18.42c-.07.2.25.29.31.09a1.87,1.87,0,0,1,.16-.35l-.29-.16a1.83,1.83,0,0,0-.18.46c-.07.2.25.29.31.09a1.88,1.88,0,0,1,.16-.39c.11-.18-.17-.34-.29-.16a2,2,0,0,0-.18.42c-.07.2.25.29.31.09a1.87,1.87,0,0,1,.16-.35c.11-.18-.17-.34-.29-.16a2,2,0,0,0-.18.42c-.07.2.24.28.31.09a2,2,0,0,1,.24-.43l-.3-.13a1.85,1.85,0,0,1-.15.39l.3.12a1.68,1.68,0,0,1,.15-.3c.11-.15-.13-.33-.26-.2a1.5,1.5,0,0,0-.23.33c-.1.19.18.36.28.17" transform="translate(-37.48 -55.72)"/><path class="cls-2" d="M307.7,119.48c.07-.07,0,0-.07,0l-.14-.25h0l0,0-.1.11-.15.17a.17.17,0,0,0,.2.26,3.66,3.66,0,0,0,.5-.38c-.06-.09-.13-.17-.2-.26l-.5.55a.17.17,0,0,0,.23.24,2.58,2.58,0,0,0,.36-.38c.12-.15-.13-.33-.25-.2s-.25.29-.39.43a.17.17,0,0,0,.24.23,1.05,1.05,0,0,0,.25-.37l-.32-.09c0,.06,0,0,0,0-.2.06-.11.38.09.31a.28.28,0,0,0,.2-.24.17.17,0,0,0-.32-.09.63.63,0,0,1-.17.23l.24.23c.13-.14.25-.29.38-.42l-.26-.2a2.94,2.94,0,0,1-.31.3l.23.24c.17-.18.33-.38.51-.56s0-.37-.2-.25a4.82,4.82,0,0,1-.51.38c.07.08.13.17.2.26l.17-.19a.84.84,0,0,0,.15-.18.17.17,0,0,0-.14-.25.18.18,0,0,0-.16.09.16.16,0,0,0,.23.23" transform="translate(-37.48 -55.72)"/></svg>