<svg id="Camada_1" data-name="Camada 1" xmlns="http://www.w3.org/2000/svg" viewBox="0 0 260.58 227.55"><defs><style>.cls-1{fill:#89d4fb;}.cls-2{fill:aqua;}.cls-3{fill:#f5d1a1;}.cls-4{fill:#12e0db;}.cls-5,.cls-6{fill:#fff;}.cls-6{stroke:#487de0;stroke-linecap:round;stroke-linejoin:round;stroke-width:0.27px;}.cls-7{fill:#070707;}.cls-8{fill:#a9e0f6;}.cls-9{fill:#dcf3f9;}.cls-10{fill:none;stroke:#070707;stroke-miterlimit:10;stroke-width:0.92px;}</style></defs><path class="cls-1" d="M262.41,261.53a.78.78,0,0,1-.17-.26c-10.1-25.07-17.49-53-39-70.36a4.2,4.2,0,0,1-1.34-1,65.86,65.86,0,0,0-6.34-4.31c-27.3-16.33-63.77-15.47-89.92,2.74a50.45,50.45,0,0,0-15.83,17.32A39.09,39.09,0,0,0,106,217c-.8,4.32-1.32,9.75-.33,14.18a19.67,19.67,0,0,1,7.28-1.3c6.7,0,12.14,2.91,12.14,6.52a4.1,4.1,0,0,1-1,2.62c5,1.83,11.06,5.85,11.2,11.48.16,6.35-7.48,7.48-12.3,7.13,1.67,5.95,2,17-6.66,16.61a5.06,5.06,0,0,1-4.57-3.42l-.11,0a7.12,7.12,0,0,1-1.15.15.71.71,0,0,1,.13.36c.61,4.63.35,9.66,3.16,13.64a.67.67,0,0,1,.14.46c11,9.11,20.09,20.89,33.91,25.65,11.68,4,24.12.69,35.45-2.88,12.09-3.8,24.45-6.06,35.6-12.33a.68.68,0,0,1,.32-.11c-1.53-1.66-2.32-3.58-1-6.09,2.85-5.57,11.16-2.08,15.16-.2.71.34,1.56.72,2.44,1.15a.77.77,0,0,1,.21-.19,125.89,125.89,0,0,0,15.95-12.45C257,273.59,261.12,268.24,262.41,261.53Zm-70.54-31c0,15.69-13.1,28.41-29.27,28.41s-29.28-12.72-29.28-28.41,13.1-28.39,29.28-28.39S191.87,214.89,191.87,230.57Z" transform="translate(-34.5 -158.15)"/><path class="cls-1" d="M290,328.06c3.31,1,7,5.89,2.2,8.3-4.05,2-8.2,1-12.41,1.42a27.54,27.54,0,0,0,4.24-9.61h.11A10.9,10.9,0,0,1,290,328.06Z" transform="translate(-34.5 -158.15)"/><path class="cls-2" d="M91.79,306.8l-.16-.25c-.19-.41-.39-.82-.59-1.23-.2-.7-.13-1.34.78-1.46a.42.42,0,0,0,.12,0c5.32.78,9.53,5.15,12.82,9.27,4.27,5.33,7.76,11.29,12.25,16.45,8.9,10.2,24.19,12.54,37.06,12.47,27.55-.14,55.48-9.4,80-21.41,13.43-6.56,28-14.19,37.34-26.21,7.12-9.15,13.5-22.84,11.57-34.89,3.25,6.21,5.19,13.33,3.86,20.35a39.91,39.91,0,0,1-8.3,17.41c-10.84,13.53-26.39,24.32-41.72,32.16-17.11,8.75-35.69,13.07-54.53,16.32-19.57,3.37-39.72,4.35-58-4.75a67.81,67.81,0,0,1-20.77-15.69A79.55,79.55,0,0,1,91.85,307,.33.33,0,0,0,91.79,306.8Z" transform="translate(-34.5 -158.15)"/><path class="cls-3" d="M134.5,250.53c-.66,7.12-9.26,6.93-14.44,6-4.36-.82-8.6-2.16-13-2.58-1.32-.13-3.11-.16-4.24-1-2.11-1.5-2-4.33-.71-6.34a21.82,21.82,0,0,1,4.24-4.7,20.1,20.1,0,0,0,6.61,1c4.52,0,8.46-1.32,10.55-3.29C128,241.26,135,245.34,134.5,250.53Z" transform="translate(-34.5 -158.15)"/><path class="cls-4" d="M96.73,276.31a.68.68,0,0,1-1,.2c-2.71-1.68-5.83-2.45-8.83-3.44a65.58,65.58,0,0,0-12.05-2.77,43.09,43.09,0,0,0-18.53,1.75c-7.75,2.41-19.74,7.6-20.32,17.08-.33,5.42,4.16,10.46,8.23,13.43,4.31,3.14,9.68,4.54,14.91,5.1,9.13,1,18.49-.65,27.34-3.08a22.33,22.33,0,0,0,2.08-1.28.38.38,0,0,1,.23-.25,1.14,1.14,0,0,1,.87-.47c1.52-.23,3.24.44,4.67.9a.33.33,0,0,1,.21.17c7.36,2.55,12.68,11.3,16.8,17.14,3.23,4.57,6.49,9.68,11.2,12.88,5.38,3.65,12,5.51,18.37,6.59,14.77,2.54,30.25.27,44.69-3.08a231.36,231.36,0,0,0,39.86-13.37c14.1-6.13,28.57-13.52,39.92-24a55.85,55.85,0,0,0,12.77-18.36c3.31-7.35,5.67-16.11,3.59-24.11-4.79-8-15.07-19.65-24.23-12.81,2,5.43,3.95,10.84,6.08,16.14a.78.78,0,0,1,.36.81c-1.12,6.6-4.91,11.88-9.65,16.44a90.83,90.83,0,0,1-7.84,6.54c-3.05,2.35-6,4.95-9.21,7,3.83,2,7.71,5,5.88,9.31a3,3,0,0,1-2.44,2,.39.39,0,0,1-.06.38c-4.68,5.67-10.76,2.27-15.16-1.93a.47.47,0,0,1-.1-.16c-1.42-1.49-3.67-2.86-5.4-4.43a.68.68,0,0,1-.37.6A74.27,74.27,0,0,1,204,304c-6.41,1.86-12.9,3.36-19.26,5.4-11.29,3.62-23.11,6.8-34.94,3.92-18.75-4.55-29.26-23.23-45.21-32.59a.36.36,0,0,1-.19-.05,17.56,17.56,0,0,0-1.89-.95.38.38,0,0,1-.26-.47c.86-2.65,1.61-5.62-.38-8a2.8,2.8,0,0,0-5,1.66,19.29,19.29,0,0,1,.07,2.53l.1.37A.36.36,0,0,1,96.73,276.31ZM84.57,289.67a8.49,8.49,0,1,1-8.49-8.22A8.37,8.37,0,0,1,84.57,289.67Z" transform="translate(-34.5 -158.15)"/><path class="cls-1" d="M178,161.32c2.89-1.79,6.86-2.32,9.86-.41,4.77,3,7.21,9.26,8.09,14.7a86.41,86.41,0,0,0-20.5-3.2C174,168.7,174.21,163.64,178,161.32Z" transform="translate(-34.5 -158.15)"/><path class="cls-3" d="M244,373.05c1.5,1.52,4,4.06,3.77,6.42s-1.87,3.6-3.8,4.34l.09-.11c2.94-4.21-3.55-8.93-7.17-9.46-.48-.07-.69.66-.21.74,3.39.49,11.61,7.42,4.88,9.48-5.26,1.61-9.41-2.73-12.18-6.75-2.26-3.29-5.88-9.07-2.26-12.68s8.53-.86,10.87,2.8l.05.05C239.54,370.15,242.12,371.15,244,373.05Z" transform="translate(-34.5 -158.15)"/><path class="cls-4" d="M81,263.69l0,0c2.63.8,3.93,4.52,2.07,6.65-1.72-.45-3.44-.84-5.18-1.15C78.3,267.16,79.29,264.56,81,263.69Z" transform="translate(-34.5 -158.15)"/><path class="cls-1" d="M230.67,185.77c-.7-2.27-3.39-3.48-6-2.71a4.75,4.75,0,0,0-3.63,4.48A79.26,79.26,0,0,0,211,181.47a.61.61,0,0,0,.06-.28c.13-3.08,5.62-5,7.81-5.68a27.89,27.89,0,0,1,8.38-1.5c4.42.05,9.11,1.27,12.36,4.46,2.7,2.66,4.53,6.5,3.61,10.36-1.16,4.85-5,8-9.2,10.3a74.15,74.15,0,0,0-7.88-7.68,6.2,6.2,0,0,0,1.11-.21C229.82,190.48,231.37,188,230.67,185.77Z" transform="translate(-34.5 -158.15)"/><path class="cls-2" d="M103.4,272.26c-.7-1.4-1.93-2.83-3.65-2.83a3.82,3.82,0,0,0-.9.1,3.62,3.62,0,0,1,4.29.63c2.86,2.81,2.29,6.07.83,9.42-.29-.15-.58-.28-.88-.42C103.79,277,104.47,274.41,103.4,272.26Z" transform="translate(-34.5 -158.15)"/><path class="cls-3" d="M236.6,291.88c3.22,1.61,6.6,3.84,6.31,6.79-.78,7.9-10.8-.93-13.11-2.58-.4-.28-.78.38-.39.66,1.59,1.13,6.86,5.84,10.55,6.06-4.33,5-9.73,1.82-13.71-1.91l0-.06c-2.14-2.46-9.35-5.51-7.92-9.57,2.15-6.08,9.84-3.33,14-1.35.86.41,2.06.91,3.35,1.51A.71.71,0,0,0,236.6,291.88Z" transform="translate(-34.5 -158.15)"/><path class="cls-5" d="M100.79,236.43c0,2.12,1.88,4,4.79,5.19-3.72,3.41-8.37,9.29-2.64,12.26a10.51,10.51,0,0,0,3.53,1c0,1-.19,2.58-.36,4.28H106c-2.83.63-7.4-2.18-9.66-3.65a29,29,0,0,1-7.83-7.3,30.61,30.61,0,0,1-5.43-13.07,9.58,9.58,0,0,0,8.6,5.24,9.29,9.29,0,1,0,0-18.57,9.61,9.61,0,0,0-8.46,4.94,25.42,25.42,0,0,1,7.49-14.07c5.18-4.87,11.06-6.62,17.83-7.9a36.21,36.21,0,0,0-2,4.49,41.94,41.94,0,0,0-2.6,12.17c-.21,3.46-.5,7.08.3,10.48C102.11,233.05,100.79,234.66,100.79,236.43Z" transform="translate(-34.5 -158.15)"/><path class="cls-5" d="M87.86,231.69a2.63,2.63,0,1,1-2.71,2.63A2.67,2.67,0,0,1,87.86,231.69Z" transform="translate(-34.5 -158.15)"/><path class="cls-3" d="M171.25,377c-2,3.43-6,5.64-9.82,3.73a10.1,10.1,0,0,0,3.38-7.46.39.39,0,0,0-.77,0,9.35,9.35,0,0,1-3.31,7.06c-5.59-3.59-2.42-12.64.26-17.47a56.86,56.86,0,0,0,12,3.7A17.41,17.41,0,0,1,171.25,377Z" transform="translate(-34.5 -158.15)"/><path class="cls-2" d="M82.15,263.39a3.72,3.72,0,0,1,2.06.67c2.58,1.63,3.17,4.82,1,6.88l-1.3-.36A5.15,5.15,0,0,0,82.15,263.39Z" transform="translate(-34.5 -158.15)"/><path class="cls-6" d="M123,266.49c-.44,3.67-3,8.66-7.64,6.81-5.85-2.34-3.76-13-3.65-17.89l.3.07a92.08,92.08,0,0,0,10.11,2.1A22.24,22.24,0,0,1,123,266.49Z" transform="translate(-34.5 -158.15)"/><path class="cls-6" d="M111.46,270.16s0,0,0,0c-7.2,1.55-4.29-11.1-4.19-15.24,1.26.12,2.55.19,3.74.36C110.92,258.37,109.88,265.56,111.46,270.16Z" transform="translate(-34.5 -158.15)"/><path class="cls-7" d="M110.47,271a.71.71,0,0,1,.13.36c.61,4.63.35,9.66,3.16,13.64a.67.67,0,0,1,.14.46c-.94-.77-1.88-1.53-2.85-2.26-1.51-3.69-1.46-7.91-2-11.84a.62.62,0,0,1,.09-.46A4.49,4.49,0,0,0,110.47,271Z" transform="translate(-34.5 -158.15)"/><path class="cls-7" d="M238.53,367.25l-.07-.11c1.8-1.8,4.57-3.17,6.71-4.52,3.42-2.15,7-4,10.57-5.9A67.46,67.46,0,0,0,273,344c4.86-5.06,10-12.23,9.81-19.57-.2-6.85-6.54-13-10.09-18.34l1.07-1.09a1.29,1.29,0,0,1,.15.17c3.64,5.6,9.27,11.26,10.28,18.15a14.23,14.23,0,0,1,0,4.07l-.23.06a.38.38,0,0,0,.09.74,27.54,27.54,0,0,1-4.24,9.61l-.72.08c-.48.07-.29.78.17.74-.64.93-1.29,1.83-1.94,2.67A58.36,58.36,0,0,1,262,354.93c-3.64,2.29-7.52,4.18-11.29,6.24q-2.88,1.59-5.66,3.34c-1.77,1.11-4.13,2.3-5.59,3.8l-.07.05a6.87,6.87,0,0,1-.79-1.05Z" transform="translate(-34.5 -158.15)"/><path class="cls-7" d="M160.32,360.91c6.21,3.18,13.29,4.49,20.15,5.29,14.45,1.68,29.63,3.07,44,.72a.78.78,0,0,1,.69.21,7.68,7.68,0,0,0-.22,1.24l-.06,0a99.58,99.58,0,0,1-22.49,1c-8.05-.5-16.19-.84-24.19-1.93-1.49-.2-3-.44-4.45-.72,0-.11,0-.23,0-.34-.05-.48-.82-.49-.76,0,0,.06,0,.13,0,.19a56.86,56.86,0,0,1-12-3.7c.1-.2.21-.39.32-.57a.38.38,0,0,0-.66-.39c-.12.2-.24.42-.36.64-.55-.26-1.1-.52-1.64-.8-5.44-2.79-11.54-7.27-14.38-12.81a.65.65,0,0,1-.09-.32c.6.1,1.2.18,1.8.26C149,354.22,155,358.17,160.32,360.91Z" transform="translate(-34.5 -158.15)"/><path class="cls-7" d="M89.76,305.73c.21.27.53.09.6-.18a5.71,5.71,0,0,0,.78,1.63.39.39,0,0,0,.71-.18,79.55,79.55,0,0,0,11.7,18.31A67.81,67.81,0,0,0,124.32,341c18.28,9.1,38.43,8.12,58,4.75,18.84-3.25,37.42-7.57,54.53-16.32,15.33-7.84,30.88-18.63,41.72-32.16a39.91,39.91,0,0,0,8.3-17.41c1.33-7-.61-14.14-3.86-20.35a24.48,24.48,0,0,0-.67-3,.38.38,0,0,0-.73.2c.06.21.11.42.16.62-4.79-8-15.07-19.65-24.23-12.81-.19-.49-.37-1-.55-1.48,11-7.93,23,7.59,27.59,16.19a33.25,33.25,0,0,1,3.57,22.09c-1.43,7.61-6,14.38-11,20.09-1.08,1.22-2.21,2.42-3.36,3.6-.59-.52-1.67.18-1.17.94l.1.15c-10.59,10.52-23.87,19.07-37,25.66-16.61,8.33-34.78,12.29-53,15.49-12.36,2.18-24.69,3.25-36.75,1.67-.14-.23-.27-.47-.4-.71-.39-.76-1.45-.27-1.4.45a72.74,72.74,0,0,1-19.69-5.87,69.15,69.15,0,0,1-21.35-15.63c-6-6.41-10.09-13.91-13.76-21.78l.07,0C89.56,305.48,89.66,305.62,89.76,305.73Z" transform="translate(-34.5 -158.15)"/><path class="cls-7" d="M91,305.32c.2.41.4.82.59,1.23A6.36,6.36,0,0,1,91,305.32Z" transform="translate(-34.5 -158.15)"/><path class="cls-7" d="M89.51,303.72l-.12,0v0Z" transform="translate(-34.5 -158.15)"/><path class="cls-7" d="M90.28,305.17l-.06-.07,0,0S90.27,305.14,90.28,305.17Z" transform="translate(-34.5 -158.15)"/><path class="cls-7" d="M272.67,306.07l-.1-.15c-.5-.76.58-1.46,1.17-.94Z" transform="translate(-34.5 -158.15)"/><path class="cls-7" d="M145.58,348.18c.13.24.26.48.4.71-.6-.08-1.2-.16-1.8-.26C144.13,347.91,145.19,347.42,145.58,348.18Z" transform="translate(-34.5 -158.15)"/><path class="cls-7" d="M54.09,271.2a45.62,45.62,0,0,1,19.66-2.55c1.13.1,2.27.24,3.39.43,0,.32-.09.64-.13.95-.06.49.71.49.76,0,0-.26.08-.53.14-.82,1.74.31,3.46.7,5.18,1.15l-.08.1c-.34.35.2.89.54.54l.34-.42,1.3.36c-.12.11-.24.22-.37.32-.38.3.16.84.54.54a4.88,4.88,0,0,0,.66-.62l.22.07c3.31,1,6.83,1.94,9.85,3.7,0,.14,0,.28.07.43s-.1.19-.18.15c-.44-.22-.83.44-.39.65a1,1,0,0,0,1,.11.58.58,0,0,0,.19,0,.68.68,0,0,1-1,.2c-2.71-1.68-5.83-2.45-8.83-3.44a65.58,65.58,0,0,0-12.05-2.77,43.09,43.09,0,0,0-18.53,1.75c-7.75,2.41-19.74,7.6-20.32,17.08-.33,5.42,4.16,10.46,8.23,13.43,4.31,3.14,9.68,4.54,14.91,5.1,9.13,1,18.49-.65,27.34-3.08l-1.18.64c-.43.24,0,.9.39.66a33.63,33.63,0,0,0,3.07-1.79,4.68,4.68,0,0,0,.37.79c.08.16.15.31.22.47-10.77,3.15-22.27,5.22-33.45,3.4-9.53-1.55-21.48-8.67-21.43-19.62C34.55,279.49,46.5,273.93,54.09,271.2Z" transform="translate(-34.5 -158.15)"/><path class="cls-7" d="M89.86,303.71a.37.37,0,0,0,0,.18.39.39,0,0,0,.4.51,2.21,2.21,0,0,0,0,.68l0,0a4.11,4.11,0,0,1-.83-1.34l.12,0Z" transform="translate(-34.5 -158.15)"/><path class="cls-7" d="M89.45,305.33l-.07,0c-.07-.16-.14-.31-.22-.47Z" transform="translate(-34.5 -158.15)"/><path class="cls-7" d="M113.9,285.5c11,9.11,20.09,20.89,33.91,25.65,11.68,4,24.12.69,35.45-2.88,12.09-3.8,24.45-6.06,35.6-12.33a.68.68,0,0,1,.32-.11c.25.28.53.55.82.82a.68.68,0,0,1-.37.6A74.27,74.27,0,0,1,204,304c-6.41,1.86-12.9,3.36-19.26,5.4-11.29,3.62-23.11,6.8-34.94,3.92-18.75-4.55-29.26-23.23-45.21-32.59a.38.38,0,0,0,.2-.7l-.16-.09c.11-.23.21-.47.31-.71a.63.63,0,0,1,.28.1,57.41,57.41,0,0,1,5.82,3.91,13.14,13.14,0,0,0,1.4,2.57A.81.81,0,0,0,113.9,285.5Z" transform="translate(-34.5 -158.15)"/><path class="cls-7" d="M112.45,285.81a13.14,13.14,0,0,1-1.4-2.57c1,.73,1.91,1.49,2.85,2.26A.81.81,0,0,1,112.45,285.81Z" transform="translate(-34.5 -158.15)"/><path class="cls-7" d="M235.67,291.43l.93.45A.71.71,0,0,1,235.67,291.43Z" transform="translate(-34.5 -158.15)"/><path class="cls-7" d="M264,261.44c-1.12,6.6-4.91,11.88-9.65,16.44a90.83,90.83,0,0,1-7.84,6.54c-3.05,2.35-6,4.95-9.21,7-.52-.27-1-.53-1.53-.77a.77.77,0,0,1,.21-.19,125.89,125.89,0,0,0,15.95-12.45c5-4.46,9.21-9.81,10.5-16.52.52.54,1.63.14,1.3-.67l-.09-.23A.78.78,0,0,1,264,261.44Z" transform="translate(-34.5 -158.15)"/><path class="cls-7" d="M292.19,336.36c4.77-2.41,1.11-7.32-2.2-8.3a10.9,10.9,0,0,0-5.86.1H284c.06-.27.1-.53.14-.8,4.33-1.13,10.13-.05,10.86,5.06,1.09,7.71-11.82,5.62-15.76,6.17h0c.19-.27.37-.54.55-.82C284,337.37,288.14,338.4,292.19,336.36Z" transform="translate(-34.5 -158.15)"/><path class="cls-7" d="M279.06,337.86l.72-.08c-.18.28-.36.55-.55.82C278.77,338.64,278.58,337.93,279.06,337.86Z" transform="translate(-34.5 -158.15)"/><path class="cls-7" d="M283.93,327.43l.23-.06c0,.27-.08.53-.14.8A.38.38,0,0,1,283.93,327.43Z" transform="translate(-34.5 -158.15)"/><path class="cls-7" d="M225.2,367.13a6.82,6.82,0,0,1,1.39-2.64c3.61-4.33,9.37-1,11.87,2.65l0,0a.38.38,0,0,0-.5.53l.12.18-.05-.05c-2.34-3.66-7.18-6.48-10.87-2.8s0,9.39,2.26,12.68c2.77,4,6.92,8.36,12.18,6.75,6.73-2.06-1.49-9-4.88-9.48-.48-.08-.27-.81.21-.74,3.62.53,10.11,5.25,7.17,9.46l-.09.11c-.37.14-.75.27-1.13.39a.39.39,0,0,0-.12.67,8,8,0,0,1-5.21.66c-3.22-.67-5.89-3.71-7.82-6.14-2.34-2.92-5-7.13-4.72-11C225.6,368.22,225.58,367.51,225.2,367.13Z" transform="translate(-34.5 -158.15)"/><path class="cls-7" d="M238.43,367.17l0,0,.07.11A.39.39,0,0,0,238.43,367.17Z" transform="translate(-34.5 -158.15)"/><path class="cls-7" d="M225,368.37a7.68,7.68,0,0,1,.22-1.24C225.58,367.51,225.6,368.22,225,368.37Z" transform="translate(-34.5 -158.15)"/><path class="cls-7" d="M244,383.81c1.93-.74,3.56-1.87,3.8-4.34s-2.27-4.9-3.77-6.42c-1.89-1.9-4.47-2.9-6-5.17a.45.45,0,0,0,.14.1.75.75,0,0,0,1.19.38c1.46,1.63,3.55,2.7,5.17,4.16a13.36,13.36,0,0,1,3.86,5.89c1.1,3.56-2.59,5.67-5.35,6.53a.34.34,0,0,1-.33-.07A3.88,3.88,0,0,0,244,383.81Z" transform="translate(-34.5 -158.15)"/><path class="cls-7" d="M238.19,368c.3.11.69-.2.47-.54a2.14,2.14,0,0,0-.13-.19l.06.06a6.87,6.87,0,0,0,.79,1.05A.75.75,0,0,1,238.19,368Z" transform="translate(-34.5 -158.15)"/><path class="cls-7" d="M242.85,384.2c.38-.12.76-.25,1.13-.39a3.88,3.88,0,0,1-1.25,1.06A.39.39,0,0,1,242.85,384.2Z" transform="translate(-34.5 -158.15)"/><path class="cls-7" d="M238.19,368a.45.45,0,0,1-.14-.1l-.12-.18a.38.38,0,0,1,.5-.53l-.06.06A.71.71,0,0,0,238.19,368Z" transform="translate(-34.5 -158.15)"/><path class="cls-7" d="M238.53,367.25a2.14,2.14,0,0,1,.13.19c.22.34-.17.65-.47.54a.71.71,0,0,1,.18-.75l.06-.06A.39.39,0,0,1,238.53,367.25Z" transform="translate(-34.5 -158.15)"/><path class="cls-7" d="M160.73,380.35l-.17.14c-.38.32.16.85.54.54l.33-.28c3.83,1.91,7.84-.3,9.82-3.73A17.41,17.41,0,0,0,173,366.58l.78.15c.75,7.47-3.25,18.13-12.54,14.74-7.41-2.7-3.76-13.75-1-18.91l.7.32C158.31,367.71,155.14,376.76,160.73,380.35Z" transform="translate(-34.5 -158.15)"/><path class="cls-7" d="M173,366.39c-.06-.49.71-.48.76,0,0,.11,0,.23,0,.34l-.78-.15C173,366.52,173,366.45,173,366.39Z" transform="translate(-34.5 -158.15)"/><path class="cls-7" d="M161.31,362.31c-.11.18-.22.37-.32.57l-.7-.32c.12-.22.24-.44.36-.64A.38.38,0,0,1,161.31,362.31Z" transform="translate(-34.5 -158.15)"/><path class="cls-7" d="M164,373.29a.39.39,0,0,1,.77,0,10.1,10.1,0,0,1-3.38,7.46,4.92,4.92,0,0,1-.45-.24l-.25-.16A9.35,9.35,0,0,0,164,373.29Z" transform="translate(-34.5 -158.15)"/><path class="cls-7" d="M161.43,380.75l-.33.28c-.38.31-.92-.22-.54-.54l.17-.14.25.16A4.92,4.92,0,0,0,161.43,380.75Z" transform="translate(-34.5 -158.15)"/><path class="cls-7" d="M218.15,289.74c2.85-5.57,11.16-2.08,15.16-.2.71.34,1.56.72,2.44,1.15a.73.73,0,0,0-.08.74c-1.29-.6-2.49-1.1-3.35-1.51-4.18-2-11.87-4.73-14,1.35-1.43,4.06,5.78,7.11,7.92,9.57l0,.06-.21-.2a.39.39,0,0,0-.64.38c-1.42-1.49-3.67-2.86-5.4-4.43a.82.82,0,0,0-.82-.82C217.65,294.17,216.86,292.25,218.15,289.74Z" transform="translate(-34.5 -158.15)"/><path class="cls-7" d="M240.12,302.63l-.16.18c-3.69-.22-9-4.93-10.55-6.06-.39-.28,0-.94.39-.66,2.31,1.65,12.33,10.48,13.11,2.58.29-2.95-3.09-5.18-6.31-6.79l.13-.06.55-.36c3.83,2,7.71,5,5.88,9.31a3,3,0,0,1-2.44,2C240.64,302.54,240.33,302.37,240.12,302.63Z" transform="translate(-34.5 -158.15)"/><path class="cls-7" d="M220,296.65c-.29-.27-.57-.54-.82-.82A.82.82,0,0,1,220,296.65Z" transform="translate(-34.5 -158.15)"/><path class="cls-7" d="M236.6,291.88l-.93-.45a.73.73,0,0,1,.08-.74c.5.24,1,.5,1.53.77l-.55.36Z" transform="translate(-34.5 -158.15)"/><path class="cls-7" d="M226.25,300.9c4,3.73,9.38,6.93,13.71,1.91a4.76,4.76,0,0,0,.76,0,.39.39,0,0,1-.06.38c-4.68,5.67-10.76,2.27-15.16-1.93a.47.47,0,0,1-.1-.16l.28.3C226,301.73,226.47,301.26,226.25,300.9Z" transform="translate(-34.5 -158.15)"/><path class="cls-7" d="M226,300.7l.21.2c.22.36-.27.83-.57.48l-.28-.3A.39.39,0,0,1,226,300.7Z" transform="translate(-34.5 -158.15)"/><path class="cls-7" d="M240,302.81l.16-.18c.21-.26.52-.09.6.16A4.76,4.76,0,0,1,240,302.81Z" transform="translate(-34.5 -158.15)"/><path class="cls-7" d="M211,181.47A79.26,79.26,0,0,1,221,187.54a3.81,3.81,0,0,0,.17,1,3.68,3.68,0,0,0,.73,1.33,65.86,65.86,0,0,0-6.34-4.31c-27.3-16.33-63.77-15.47-89.92,2.74a50.45,50.45,0,0,0-15.83,17.32A39.09,39.09,0,0,0,106,217c-.8,4.32-1.32,9.75-.33,14.18a11.52,11.52,0,0,0-1.41.66c-.8-3.4-.51-7-.3-10.48a41.94,41.94,0,0,1,2.6-12.17,36.21,36.21,0,0,1,2-4.49l.72-.13c.49-.09.28-.83-.2-.74h0a49.57,49.57,0,0,1,9.86-12.16c10.95-10,25.55-16,40.07-18.28a84.49,84.49,0,0,1,14.81-1.05c.06.18.12.36.19.53.36.91,1.84.51,1.47-.4l0-.1a86.41,86.41,0,0,1,20.5,3.2c0,.22.07.45.1.67.13.9,1.41.61,1.48-.21a83.38,83.38,0,0,1,12,4.69,3,3,0,0,0,0,.43C209.45,182.07,210.66,182.16,211,181.47Z" transform="translate(-34.5 -158.15)"/><path class="cls-7" d="M257.43,244.57l.11-.08c2,5.43,3.95,10.84,6.08,16.14a.68.68,0,0,0-1.11.4c0,.17-.07.34-.1.5a.78.78,0,0,1-.17-.26c-10.1-25.07-17.49-53-39-70.36a5.22,5.22,0,0,0,2.82.54,74.15,74.15,0,0,1,7.88,7.68l-.05,0c-.86.47-.09,1.78.77,1.32l.29-.16c.83,1,1.65,2,2.43,3,9,11.84,14.44,25.74,19.58,39.68l-.33.24C255.89,243.84,256.65,245.17,257.43,244.57Z" transform="translate(-34.5 -158.15)"/><path class="cls-7" d="M257.43,244.57c-.78.6-1.54-.73-.77-1.32L257,243c.18.5.36,1,.55,1.48Z" transform="translate(-34.5 -158.15)"/><path class="cls-7" d="M262.41,261.53c0-.16.07-.33.1-.5a.68.68,0,0,1,1.11-.4l.09.23C264,261.67,262.93,262.07,262.41,261.53Z" transform="translate(-34.5 -158.15)"/><path class="cls-7" d="M243.17,188.83c.92-3.86-.91-7.7-3.61-10.36-3.25-3.19-7.94-4.41-12.36-4.46a27.89,27.89,0,0,0-8.38,1.5c-2.19.67-7.68,2.6-7.81,5.68a.61.61,0,0,1-.06.28l-1.42-.71c.73-5.34,10.46-7.55,14.51-8a20.93,20.93,0,0,1,15.69,3.88,13,13,0,0,1,5,11.88c-.73,5.46-5.23,9.33-9.79,11.83l-1-1.18C238.19,196.86,242,193.68,243.17,188.83Z" transform="translate(-34.5 -158.15)"/><path class="cls-7" d="M233.92,199.15l.05,0,1,1.18-.29.16C233.83,200.93,233.06,199.62,233.92,199.15Z" transform="translate(-34.5 -158.15)"/><path class="cls-7" d="M209.49,181.19a3,3,0,0,1,0-.43l1.42.71C210.66,182.16,209.45,182.07,209.49,181.19Z" transform="translate(-34.5 -158.15)"/><path class="cls-7" d="M221.93,189.86c.45.34.9.7,1.34,1A4.2,4.2,0,0,1,221.93,189.86Z" transform="translate(-34.5 -158.15)"/><path class="cls-7" d="M224.66,183.06c2.62-.77,5.31.44,6,2.71s-.85,4.71-3.47,5.47a6.2,6.2,0,0,1-1.11.21q-2.44-2.07-5.06-3.91A4.75,4.75,0,0,1,224.66,183.06Z" transform="translate(-34.5 -158.15)"/><path class="cls-7" d="M221.2,188.53a3.81,3.81,0,0,1-.17-1q2.61,1.85,5.06,3.91a5.22,5.22,0,0,1-2.82-.54c-.44-.35-.89-.71-1.34-1A3.68,3.68,0,0,1,221.2,188.53Z" transform="translate(-34.5 -158.15)"/><path class="cls-7" d="M187.82,160.91c-3-1.91-7-1.38-9.86.41-3.75,2.32-4,7.38-2.55,11.09l-1.63,0c-2.48-7.22,2.48-15.36,10.78-14.1,8,1.21,11.93,10.41,12.93,17.59v.2l-1.58-.46C195,170.17,192.59,164,187.82,160.91Z" transform="translate(-34.5 -158.15)"/><path class="cls-7" d="M196,176.28c0-.22-.07-.45-.1-.67l1.58.46C197.42,176.89,196.14,177.18,196,176.28Z" transform="translate(-34.5 -158.15)"/><path class="cls-7" d="M175.44,172.51c.37.91-1.11,1.31-1.47.4-.07-.17-.13-.35-.19-.53l1.63,0Z" transform="translate(-34.5 -158.15)"/><path class="cls-5" d="M191.87,230.57c0-15.68-13.1-28.39-29.27-28.39s-29.28,12.71-29.28,28.39S146.42,259,162.6,259,191.87,246.26,191.87,230.57Zm-38.72,3.89a9.57,9.57,0,1,1-9.57-9.29A9.42,9.42,0,0,1,153.15,234.46Z" transform="translate(-34.5 -158.15)"/><path class="cls-5" d="M139.73,240.36a2.63,2.63,0,1,1,2.71-2.62A2.66,2.66,0,0,1,139.73,240.36Z" transform="translate(-34.5 -158.15)"/><path class="cls-7" d="M153.15,234.46a9.57,9.57,0,1,0-9.57,9.28A9.43,9.43,0,0,0,153.15,234.46Zm-10.71,3.28a2.71,2.71,0,1,1-2.71-2.63A2.67,2.67,0,0,1,142.44,237.74Z" transform="translate(-34.5 -158.15)"/><path class="cls-7" d="M105.58,241.62c.24.1.5.19.75.28a21.82,21.82,0,0,0-4.24,4.7c-1.3,2-1.4,4.84.71,6.34,1.13.82,2.92.85,4.24,1,4.42.42,8.66,1.76,13,2.58,5.18,1,13.78,1.15,14.44-6,.49-5.19-6.51-9.27-11-10.87l.23-.22a.45.45,0,0,0,.21-.24l.13-.15c5,1.83,11.06,5.85,11.2,11.48.16,6.35-7.48,7.48-12.3,7.13,0-.17-.09-.33-.14-.48-.14-.47-.88-.27-.73.2l0,.2a92.08,92.08,0,0,1-10.11-2.1l-.3-.07v-.16a.38.38,0,0,0-.76,0v0c-1.19-.17-2.48-.24-3.74-.36v-.21a.38.38,0,0,0-.76,0v.12a10.51,10.51,0,0,1-3.53-1C97.21,250.91,101.86,245,105.58,241.62Z" transform="translate(-34.5 -158.15)"/><path class="cls-7" d="M123.72,239.44l.21-.24A.45.45,0,0,1,123.72,239.44Z" transform="translate(-34.5 -158.15)"/><path class="cls-7" d="M125.08,236.43a4.1,4.1,0,0,1-1,2.62l-.09,0a.31.31,0,0,0-.28-.28l-.93-.13a.38.38,0,0,0-.2.74c.29.09.61.19.93.31-2.09,2-6,3.29-10.55,3.29a20.1,20.1,0,0,1-6.61-1c.58-.49,1.18-1,1.79-1.42.39-.29,0-1-.38-.66-.6.45-1.36,1.07-2.16,1.8-2.91-1.19-4.79-3.07-4.79-5.19,0-1.77,1.32-3.38,3.46-4.56,0,.22.1.43.16.64a.76.76,0,0,0,1.47-.41c-.08-.29-.16-.59-.22-.89a19.67,19.67,0,0,1,7.28-1.3C119.64,229.91,125.08,232.82,125.08,236.43Z" transform="translate(-34.5 -158.15)"/><path class="cls-7" d="M104.41,232.51c-.06-.21-.11-.42-.16-.64a11.52,11.52,0,0,1,1.41-.66c.06.3.14.6.22.89A.76.76,0,0,1,104.41,232.51Z" transform="translate(-34.5 -158.15)"/><path class="cls-7" d="M122.76,238.61l-.2.74A.38.38,0,0,1,122.76,238.61Z" transform="translate(-34.5 -158.15)"/><path class="cls-7" d="M123.72,239.44l-.23.22c-.32-.12-.64-.22-.93-.31l.93.13A.45.45,0,0,0,123.72,239.44Z" transform="translate(-34.5 -158.15)"/><path class="cls-7" d="M107.74,239.82c.39-.3.77.37.38.66-.61.46-1.21.93-1.79,1.42-.25-.09-.51-.18-.75-.28C106.38,240.89,107.14,240.27,107.74,239.82Z" transform="translate(-34.5 -158.15)"/><path class="cls-7" d="M123.69,238.74a.31.31,0,0,1,.28.28c-.41-.15-.82-.29-1.21-.41Z" transform="translate(-34.5 -158.15)"/><path class="cls-7" d="M123.93,239.2l-.21.24a.45.45,0,0,1-.23,0l-.93-.13.2-.74c.39.12.8.26,1.21.41A.39.39,0,0,1,123.93,239.2Z" transform="translate(-34.5 -158.15)"/><path class="cls-7" d="M124,239l.09,0-.13.15A.39.39,0,0,0,124,239Z" transform="translate(-34.5 -158.15)"/><path class="cls-7" d="M122.14,257.58l0-.2c-.15-.47.59-.67.73-.2.05.15.1.31.14.48l-.76-.07Z" transform="translate(-34.5 -158.15)"/><path class="cls-7" d="M111,255.25a.38.38,0,0,1,.76,0v.16l-.76-.13Z" transform="translate(-34.5 -158.15)"/><path class="cls-7" d="M106.11,259.11c.17-1.7.35-3.23.36-4.28l.76.09c-.1,4.14-3,16.79,4.19,15.24,0,0,0,0,0,0q.12.34.27.69l-.11,0a7.12,7.12,0,0,1-1.15.15.83.83,0,0,0-1.3-.1c-3.65-.84-3.55-6.41-3.13-11.06l.19,0C106.68,259.75,106.53,259.1,106.11,259.11Z" transform="translate(-34.5 -158.15)"/><path class="cls-7" d="M110.47,271a4.49,4.49,0,0,1-1.3-.1A.83.83,0,0,1,110.47,271Z" transform="translate(-34.5 -158.15)"/><path class="cls-7" d="M107.23,254.71v.21l-.76-.09v-.12A.38.38,0,0,1,107.23,254.71Z" transform="translate(-34.5 -158.15)"/><path class="cls-7" d="M111.73,270.85q-.15-.35-.27-.69A.38.38,0,0,1,111.73,270.85Z" transform="translate(-34.5 -158.15)"/><path class="cls-7" d="M271.44,294.4c-9.37,12-23.91,19.65-37.34,26.21-24.55,12-52.48,21.27-80,21.41-12.87.07-28.16-2.27-37.06-12.47-4.49-5.16-8-11.12-12.25-16.45-3.29-4.12-7.5-8.49-12.82-9.27a.43.43,0,0,0,.2-.2c.68.16,1.35.37,2,.58.37.12.56-.3.42-.56,7.36,2.55,12.68,11.3,16.8,17.14,3.23,4.57,6.49,9.68,11.2,12.88,5.38,3.65,12,5.51,18.37,6.59,14.77,2.54,30.25.27,44.69-3.08a231.36,231.36,0,0,0,39.86-13.37c14.1-6.13,28.57-13.52,39.92-24a55.85,55.85,0,0,0,12.77-18.36c3.31-7.35,5.67-16.11,3.59-24.11.37.61.71,1.2,1,1.76.09.15.16.3.24.45C284.94,271.56,278.56,285.25,271.44,294.4Z" transform="translate(-34.5 -158.15)"/><path class="cls-7" d="M90.11,303.31v0h0Z" transform="translate(-34.5 -158.15)"/><path class="cls-7" d="M88.59,303.3a.38.38,0,0,1,.23-.25.61.61,0,0,0-.07.14Z" transform="translate(-34.5 -158.15)"/><path class="cls-7" d="M90.69,303.34h.07l.18,0-.18.12A.33.33,0,0,0,90.69,303.34Z" transform="translate(-34.5 -158.15)"/><path class="cls-7" d="M89.94,303.57s0,0,0,.05l-.15,0-.25.07-.13,0a.25.25,0,0,1,0-.08.36.36,0,0,0,.11-.21,1,1,0,0,1,.62-.16v0C90.05,303.39,90,303.49,89.94,303.57Z" transform="translate(-34.5 -158.15)"/><path class="cls-7" d="M281.77,257.3c0-.2-.1-.41-.16-.62a.38.38,0,0,1,.73-.2,24.48,24.48,0,0,1,.67,3c-.08-.15-.15-.3-.24-.45C282.48,258.5,282.14,257.91,281.77,257.3Z" transform="translate(-34.5 -158.15)"/><path class="cls-7" d="M89.91,303.62a.41.41,0,0,0,0,.09h-.35l.25-.07Z" transform="translate(-34.5 -158.15)"/><path class="cls-5" d="M84.57,289.67a8.49,8.49,0,1,0-8.49,8.24A8.36,8.36,0,0,0,84.57,289.67Zm-6.13.09a2.77,2.77,0,1,1-2.77-2.69A2.73,2.73,0,0,1,78.44,289.76Z" transform="translate(-34.5 -158.15)"/><path class="cls-7" d="M78.44,289.76a2.77,2.77,0,1,0-2.77,2.69A2.73,2.73,0,0,0,78.44,289.76Zm-3.1.95a.79.79,0,1,1-.79-.76A.77.77,0,0,1,75.34,290.71Z" transform="translate(-34.5 -158.15)"/><path class="cls-7" d="M83.25,226.7a29.35,29.35,0,0,0-.37,3,24.7,24.7,0,0,0,.23,5.44,9.58,9.58,0,0,0,8.6,5.24,9.29,9.29,0,1,0,0-18.57A9.61,9.61,0,0,0,83.25,226.7Zm1.9,7.62A2.71,2.71,0,1,1,87.86,237,2.67,2.67,0,0,1,85.15,234.32Z" transform="translate(-34.5 -158.15)"/><path class="cls-7" d="M90.74,212.63a25.42,25.42,0,0,0-7.49,14.07A9,9,0,0,0,82.14,231a8.93,8.93,0,0,0,1,4.05,30.61,30.61,0,0,0,5.43,13.07,29,29,0,0,0,7.83,7.3c2.26,1.47,6.83,4.28,9.66,3.65h.08c0,.25,0,.51-.07.77-2.25.39-4.62-1.07-6.62-1.93a28.75,28.75,0,0,1-9.16-6.55,30.06,30.06,0,0,1-8.16-19,26.52,26.52,0,0,1,6.37-18.46c5.36-6.44,12.65-8.6,20.57-10-.16.29-.32.57-.47.86C101.8,206,95.92,207.76,90.74,212.63Z" transform="translate(-34.5 -158.15)"/><path class="cls-7" d="M109.29,204.6l-.72.13c.15-.29.31-.57.47-.86h0C109.57,203.77,109.78,204.51,109.29,204.6Z" transform="translate(-34.5 -158.15)"/><path class="cls-7" d="M106.23,259.85l-.19,0c0-.26,0-.52.07-.77C106.53,259.1,106.68,259.75,106.23,259.85Z" transform="translate(-34.5 -158.15)"/><path class="cls-7" d="M83.11,235.09a8.93,8.93,0,0,1-1-4.05,9,9,0,0,1,1.11-4.34,29.35,29.35,0,0,0-.37,3A24.7,24.7,0,0,0,83.11,235.09Z" transform="translate(-34.5 -158.15)"/><path class="cls-7" d="M84.21,264.06a3.72,3.72,0,0,0-2.06-.67,4.86,4.86,0,0,0-.93-.41c-.46-.14-.65.54-.24.71-1.69.87-2.68,3.47-3.07,5.52l-.77-.13c.34-2.14,1-4.36,2.81-5.7a4.19,4.19,0,0,1,4.48-.07A5,5,0,0,1,86,271.18l-.83-.24C87.38,268.88,86.79,265.69,84.21,264.06Z" transform="translate(-34.5 -158.15)"/><path class="cls-7" d="M85.36,271.8c-.38.3-.92-.24-.54-.54.13-.1.25-.21.37-.32l.83.24A4.88,4.88,0,0,1,85.36,271.8Z" transform="translate(-34.5 -158.15)"/><path class="cls-7" d="M77.77,270c0,.49-.82.49-.76,0,0-.31.08-.63.13-.95l.77.13C77.85,269.5,77.81,269.77,77.77,270Z" transform="translate(-34.5 -158.15)"/><path class="cls-7" d="M81,263.71l0,0a2.74,2.74,0,0,1,1.17-.3,5.15,5.15,0,0,1,1.74,7.19l-.8-.22C85,268.23,83.65,264.51,81,263.71Z" transform="translate(-34.5 -158.15)"/><path class="cls-7" d="M83.55,271c-.34.35-.88-.19-.54-.54l.08-.1.8.22Z" transform="translate(-34.5 -158.15)"/><path class="cls-7" d="M81,263.69c-.41-.17-.22-.85.24-.71a4.86,4.86,0,0,1,.93.41A2.74,2.74,0,0,0,81,263.69Z" transform="translate(-34.5 -158.15)"/><path class="cls-7" d="M104.17,279.69l-.2-.11c1.46-3.35,2-6.61-.83-9.42a3.62,3.62,0,0,0-4.29-.63,3.22,3.22,0,0,0-2.37,1.93,3.89,3.89,0,0,0-.33,1.93,12.21,12.21,0,0,1,.06,1.63l-.12-.07c-.47-3.55,1.5-7.51,5.71-6.44,2,.5,3.27,2.57,3.92,4.35.81,2.18.1,4.34-.77,6.37A.77.77,0,0,0,104.17,279.69Z" transform="translate(-34.5 -158.15)"/><path class="cls-7" d="M96.89,275.79a1.65,1.65,0,0,0,.06-.32l.1.37a.36.36,0,0,1-.32.47A.94.94,0,0,0,96.89,275.79Z" transform="translate(-34.5 -158.15)"/><path class="cls-7" d="M96.89,275.79a.94.94,0,0,1-.16.52.58.58,0,0,1-.19,0A.86.86,0,0,0,96.89,275.79Z" transform="translate(-34.5 -158.15)"/><path class="cls-7" d="M96.16,275.38c0-.15,0-.29-.07-.43l.12.07A1.73,1.73,0,0,1,96.16,275.38Z" transform="translate(-34.5 -158.15)"/><path class="cls-7" d="M104.17,279.69a.77.77,0,0,1,.78-.46c-.1.24-.2.48-.31.71Z" transform="translate(-34.5 -158.15)"/><path class="cls-7" d="M102.73,279l.36.16c0,.11-.07.21-.1.31Z" transform="translate(-34.5 -158.15)"/><path class="cls-7" d="M104.41,280.68a17.56,17.56,0,0,0-1.89-.95.38.38,0,0,1-.26-.47c.86-2.65,1.61-5.62-.38-8a2.8,2.8,0,0,0-5,1.66,19.29,19.29,0,0,1,.07,2.53,6,6,0,0,1,.57-4.77,2.24,2.24,0,0,1,2.23-1.27c1.72,0,3,1.43,3.65,2.83,1.07,2.15.39,4.74-.31,6.9l-.36-.16.26.47c0-.1.07-.2.1-.31.3.14.59.27.88.42l-.06.13a.41.41,0,0,0,.22.54.73.73,0,0,0,.33.4l.14.08A.36.36,0,0,1,104.41,280.68Z" transform="translate(-34.5 -158.15)"/><path class="cls-7" d="M96.54,276.29a1,1,0,0,1-1-.11c-.44-.21,0-.87.39-.65.08,0,.14,0,.18-.15a5.43,5.43,0,0,0,.16.67A.33.33,0,0,0,96.54,276.29Z" transform="translate(-34.5 -158.15)"/><path class="cls-7" d="M104.13,280.25a.3.3,0,0,0,.44-.15,1.11,1.11,0,0,0,.07-.16l.16.09a.38.38,0,0,1-.2.7l-.14-.08A.73.73,0,0,1,104.13,280.25Z" transform="translate(-34.5 -158.15)"/><path class="cls-7" d="M97.52,270.7a6,6,0,0,0-.57,4.77,1.65,1.65,0,0,1-.06.32.73.73,0,0,0-.36-.59,3.3,3.3,0,0,0-.32-.18,12.21,12.21,0,0,0-.06-1.63,3.89,3.89,0,0,1,.33-1.93,3.22,3.22,0,0,1,2.37-1.93A3.8,3.8,0,0,0,97.52,270.7Z" transform="translate(-34.5 -158.15)"/><path class="cls-7" d="M104.13,280.25a.41.41,0,0,1-.22-.54l.06-.13.2.11A.78.78,0,0,0,104.13,280.25Z" transform="translate(-34.5 -158.15)"/><path class="cls-7" d="M96.53,275.2a.73.73,0,0,1,.36.59.86.86,0,0,1-.35.5.33.33,0,0,1-.22-.24,5.43,5.43,0,0,1-.16-.67,1.73,1.73,0,0,0,0-.36A3.3,3.3,0,0,1,96.53,275.2Z" transform="translate(-34.5 -158.15)"/><path class="cls-7" d="M104.13,280.25a.78.78,0,0,1,0-.56l.47.25a1.11,1.11,0,0,1-.07.16A.3.3,0,0,1,104.13,280.25Z" transform="translate(-34.5 -158.15)"/><path class="cls-7" d="M91.79,306.8a.33.33,0,0,1,.06.2c-.07-.15-.14-.3-.22-.45Z" transform="translate(-34.5 -158.15)"/><path class="cls-7" d="M90.62,304.05a1.38,1.38,0,0,0,.12-.34,11.61,11.61,0,0,1,1.2.12.42.42,0,0,1-.12,0c-.91.12-1,.76-.78,1.46l-.36-.77A.86.86,0,0,0,90.62,304.05Z" transform="translate(-34.5 -158.15)"/><path class="cls-7" d="M90.3,305.19l0,0s0-.06,0-.09a.7.7,0,0,0,.42-.53l.36.77a6.36,6.36,0,0,0,.59,1.23c.08.15.15.3.22.45a.39.39,0,0,1-.71.18,5.71,5.71,0,0,1-.78-1.63A.37.37,0,0,0,90.3,305.19Z" transform="translate(-34.5 -158.15)"/><path class="cls-7" d="M90.53,304.22l.09-.17a.86.86,0,0,1,.06.5l-.15-.33Z" transform="translate(-34.5 -158.15)"/><path class="cls-7" d="M90.26,304.4a.34.34,0,0,0,.27-.18l.15.33a.7.7,0,0,1-.42.53A2.21,2.21,0,0,1,90.26,304.4Z" transform="translate(-34.5 -158.15)"/><path class="cls-7" d="M90.77,303.57s0-.05,0-.07l.18-.12c.4.06.8.15,1.2.25a.43.43,0,0,1-.2.2,11.61,11.61,0,0,0-1.2-.12Z" transform="translate(-34.5 -158.15)"/><path class="cls-7" d="M90.32,303.7h.23l0,.07Z" transform="translate(-34.5 -158.15)"/><path class="cls-7" d="M90.47,303.83l-.16-.13h0l.18.08Z" transform="translate(-34.5 -158.15)"/><path class="cls-7" d="M90.47,303.83a.41.41,0,0,0-.07.11l-.11-.24h0Z" transform="translate(-34.5 -158.15)"/><path class="cls-7" d="M90.29,304.23a.86.86,0,0,0,0,.17.39.39,0,0,1-.4-.51A.38.38,0,0,0,90.29,304.23Z" transform="translate(-34.5 -158.15)"/><path class="cls-7" d="M90,303.71h.34l.11.24a1.45,1.45,0,0,0-.11.29.38.38,0,0,1-.43-.34.07.07,0,0,1,0-.06A.75.75,0,0,1,90,303.71Z" transform="translate(-34.5 -158.15)"/><path class="cls-7" d="M89.88,303.83a.07.07,0,0,0,0,.06.37.37,0,0,1,0-.18H90A.75.75,0,0,0,89.88,303.83Z" transform="translate(-34.5 -158.15)"/><path class="cls-7" d="M90.29,303.69Z" transform="translate(-34.5 -158.15)"/><path class="cls-7" d="M90.55,303.71h-.26l-.18-.38h0l.56,0a.33.33,0,0,1,.07.16A1,1,0,0,0,90.55,303.71Z" transform="translate(-34.5 -158.15)"/><path class="cls-7" d="M90.25,303.68h0Z" transform="translate(-34.5 -158.15)"/><path class="cls-7" d="M90.21,303.66a.54.54,0,0,0-.22,0,.07.07,0,0,0,0-.05Z" transform="translate(-34.5 -158.15)"/><path class="cls-7" d="M90.21,303.66l-.21-.09a.07.07,0,0,1,0,.05h-.08s0,0,0-.05.11-.18.17-.26l.18.38h0Z" transform="translate(-34.5 -158.15)"/><path class="cls-7" d="M90.31,303.7h0Z" transform="translate(-34.5 -158.15)"/><path class="cls-7" d="M90,303.62a.36.36,0,0,1,0,.09h-.09a.41.41,0,0,1,0-.09Z" transform="translate(-34.5 -158.15)"/><path class="cls-7" d="M90.25,303.68H90a.36.36,0,0,0,0-.09.54.54,0,0,1,.22,0Z" transform="translate(-34.5 -158.15)"/><path class="cls-7" d="M90.25,303.68l0,0Z" transform="translate(-34.5 -158.15)"/><path class="cls-7" d="M90.66,303.84l-.16-.06,0-.07h.19a1.38,1.38,0,0,1-.12.34.22.22,0,0,0-.05-.08A.6.6,0,0,1,90.66,303.84Z" transform="translate(-34.5 -158.15)"/><path class="cls-7" d="M90.5,303.78l.16.06a.6.6,0,0,0-.09.13.71.71,0,0,0-.1-.14Z" transform="translate(-34.5 -158.15)"/><path class="cls-7" d="M90.57,304a.22.22,0,0,1,.05.08l-.09.17h0l0-.11Z" transform="translate(-34.5 -158.15)"/><path class="cls-7" d="M90.57,304l-.09.14c0-.06,0-.12-.08-.17a.41.41,0,0,1,.07-.11A.71.71,0,0,1,90.57,304Z" transform="translate(-34.5 -158.15)"/><path class="cls-7" d="M90.48,304.11h0l0,.11a.34.34,0,0,1-.27.18.86.86,0,0,1,0-.17A.36.36,0,0,0,90.48,304.11Z" transform="translate(-34.5 -158.15)"/><path class="cls-7" d="M90.48,304.11a.36.36,0,0,1-.19.12,1.45,1.45,0,0,1,.11-.29c0,.05,0,.11.08.17Z" transform="translate(-34.5 -158.15)"/><path class="cls-7" d="M90.76,303.5s0,.05,0,.07l0,.14h-.19A1,1,0,0,1,90.76,303.5Z" transform="translate(-34.5 -158.15)"/><path class="cls-7" d="M89.87,302.94A.68.68,0,0,0,89,303h0l-.11,0a1.14,1.14,0,0,1,.87-.47c1.52-.23,3.24.44,4.67.9a.33.33,0,0,1,.21.17A12.86,12.86,0,0,0,89.87,302.94Z" transform="translate(-34.5 -158.15)"/><path class="cls-7" d="M89.38,303.74v0l-.22.07.12-.09Z" transform="translate(-34.5 -158.15)"/><path class="cls-7" d="M89.06,303H89a.68.68,0,0,1,.92-.07c-.24,0-.49,0-.73.06Z" transform="translate(-34.5 -158.15)"/><path class="cls-7" d="M90.22,305.1l.06.07c0,.13,0,.26.08.38s-.39.45-.6.18c-.1-.11-.2-.25-.31-.4l.71-.2Z" transform="translate(-34.5 -158.15)"/><path class="cls-7" d="M89.16,304.88a4.68,4.68,0,0,1-.37-.79h0Z" transform="translate(-34.5 -158.15)"/><path class="cls-7" d="M89.17,303.83l.22-.07a4.11,4.11,0,0,0,.83,1.34l-.06,0-.71.2-.29-.45-.36-.79Z" transform="translate(-34.5 -158.15)"/><path class="cls-7" d="M94.15,304.21c-.66-.21-1.33-.42-2-.58.11-.24,0-.57-.32-.53a2.4,2.4,0,0,0-.88.28l-.18,0h-.07a.38.38,0,0,0-.56,0h0l0-.1a.6.6,0,0,0-.18-.25,12.86,12.86,0,0,1,4.7.71C94.71,303.91,94.52,304.33,94.15,304.21Z" transform="translate(-34.5 -158.15)"/><path class="cls-7" d="M89,303l-.12.12-.08.06a.61.61,0,0,1,.07-.14l.11,0Z" transform="translate(-34.5 -158.15)"/><path class="cls-7" d="M89.37,303.66a.25.25,0,0,0,0,.08h-.09l0,0Z" transform="translate(-34.5 -158.15)"/><path class="cls-7" d="M88.93,303.06l-.1.07L89,303h.11Z" transform="translate(-34.5 -158.15)"/><path class="cls-7" d="M89.48,303.45a.4.4,0,0,0-.34-.45c.24,0,.49-.05.73-.06a.6.6,0,0,1,.18.25l0,.1A1,1,0,0,0,89.48,303.45Z" transform="translate(-34.5 -158.15)"/><path class="cls-7" d="M90.3,305.19a.37.37,0,0,1,.06.36c0-.12-.06-.25-.08-.38Z" transform="translate(-34.5 -158.15)"/><path class="cls-7" d="M91.82,303.1c.33,0,.43.29.32.53-.4-.1-.8-.19-1.2-.25A2.4,2.4,0,0,1,91.82,303.1Z" transform="translate(-34.5 -158.15)"/><path class="cls-7" d="M90.69,303.34l-.56,0A.38.38,0,0,1,90.69,303.34Z" transform="translate(-34.5 -158.15)"/><path class="cls-7" d="M88.67,303.69a.82.82,0,0,0,.06.26q-1.1.33-2.22.63a22.33,22.33,0,0,0,2.08-1.28A.36.36,0,0,0,88.67,303.69Z" transform="translate(-34.5 -158.15)"/><path class="cls-7" d="M88.75,304h0a.82.82,0,0,1-.06-.26l0,0A2,2,0,0,0,88.75,304Z" transform="translate(-34.5 -158.15)"/><path class="cls-7" d="M88.74,304a.36.36,0,0,0,0,.09v0a33.63,33.63,0,0,1-3.07,1.79c-.43.24-.82-.42-.39-.66l1.18-.64q1.13-.3,2.22-.63Z" transform="translate(-34.5 -158.15)"/><path class="cls-7" d="M88.78,304.05a.36.36,0,0,1,0-.09h0Z" transform="translate(-34.5 -158.15)"/><path class="cls-7" d="M88.7,303.38a.8.8,0,0,0,0,.31.36.36,0,0,1-.08-.39l.16-.11A1.05,1.05,0,0,0,88.7,303.38Z" transform="translate(-34.5 -158.15)"/><path class="cls-7" d="M88.7,303.38a1.22,1.22,0,0,0,0,.33l0,0A.8.8,0,0,1,88.7,303.38Z" transform="translate(-34.5 -158.15)"/><path class="cls-7" d="M89.44,303.48l0,0a.36.36,0,0,1-.11.21A.23.23,0,0,1,89.44,303.48Z" transform="translate(-34.5 -158.15)"/><path class="cls-7" d="M88.7,303.71a.29.29,0,0,0,.23.07l.36,0-.12.09-.42.12A2,2,0,0,1,88.7,303.71Z" transform="translate(-34.5 -158.15)"/><path class="cls-7" d="M89.14,303h0Z" transform="translate(-34.5 -158.15)"/><path class="cls-7" d="M88.8,304.09h0v0Z" transform="translate(-34.5 -158.15)"/><path class="cls-7" d="M89.17,303.83l-.37.26,0,0,0-.1Z" transform="translate(-34.5 -158.15)"/><path class="cls-7" d="M88.75,303.19l.08-.06a1.19,1.19,0,0,0-.13.25A1.05,1.05,0,0,1,88.75,303.19Z" transform="translate(-34.5 -158.15)"/><path class="cls-7" d="M89.06,303h.08a.4.4,0,0,1,.34.45l0,0a.23.23,0,0,0-.07.18l-.05.06,0,0-.36,0a.29.29,0,0,1-.23-.07,1.22,1.22,0,0,1,0-.33,1.19,1.19,0,0,1,.13-.25l.1-.07Z" transform="translate(-34.5 -158.15)"/><path class="cls-1" d="M273,344a67.46,67.46,0,0,1-17.21,12.74c-3.55,1.92-7.15,3.75-10.57,5.9-2.14,1.35-4.91,2.72-6.71,4.52-2.5-3.61-8.26-7-11.87-2.65a6.82,6.82,0,0,0-1.39,2.64.78.78,0,0,0-.69-.21c-14.41,2.35-29.59,1-44-.72-6.86-.8-13.94-2.11-20.15-5.29-5.33-2.74-11.28-6.69-14.34-12,12.06,1.58,24.39.51,36.75-1.67,18.18-3.2,36.35-7.16,53-15.49,13.11-6.59,26.39-15.14,37-25.66,3.55,5.38,9.89,11.49,10.09,18.34C283,331.75,277.81,338.92,273,344Z" transform="translate(-34.5 -158.15)"/><path class="cls-8" d="M119.46,273.8c5.33-2.16,4.93-11,3.5-16.14,4.82.35,12.46-.78,12.3-7.13-.14-5.63-6.19-9.65-11.2-11.48a4.1,4.1,0,0,0,1-2.62c0-3.61-5.44-6.52-12.14-6.52a19.67,19.67,0,0,0-7.28,1.3c-1-4.43-.47-9.86.33-14.18a39.09,39.09,0,0,1,3.85-11.42,50.38,50.38,0,0,1,15.84-17.32c.72-.51,1.45-1,2.19-1.47,13.26,1.87,27.42,7.39,41.35,16.1a30,30,0,0,0-6.62-.74c-16.18,0-29.28,12.71-29.28,28.39S146.42,259,162.6,259s29.27-12.72,29.27-28.41A27.62,27.62,0,0,0,188.33,217a195.23,195.23,0,0,1,51.58,70.83Q238,289.25,236,290.5a.77.77,0,0,0-.21.19c-.88-.43-1.73-.81-2.44-1.15-4-1.88-12.31-5.37-15.16.2-1.29,2.51-.5,4.43,1,6.09a.68.68,0,0,0-.32.11c-11.15,6.27-23.51,8.53-35.6,12.33-1.91.61-3.85,1.2-5.82,1.75C158.64,286.19,135.53,272.1,119.46,273.8Z" transform="translate(-34.5 -158.15)"/><path class="cls-8" d="M110.6,271.4a.71.71,0,0,0-.13-.36,7.12,7.12,0,0,0,1.15-.15l.11,0a5.06,5.06,0,0,0,4.57,3.42h.34a19.19,19.19,0,0,0-5.53,2.27C110.93,274.82,110.82,273.08,110.6,271.4Z" transform="translate(-34.5 -158.15)"/><path class="cls-9" d="M116.64,274.27a23,23,0,0,1,2.82-.47A7.22,7.22,0,0,1,116.64,274.27Z" transform="translate(-34.5 -158.15)"/><path class="cls-9" d="M147.81,311.15c-13.82-4.76-22.93-16.54-33.91-25.65a.67.67,0,0,0-.14-.46c-1.79-2.53-2.33-5.49-2.65-8.5a19.19,19.19,0,0,1,5.53-2.27,7.22,7.22,0,0,0,2.82-.47c16.07-1.7,39.18,12.39,58,36.22C167.76,312.75,157.52,314.49,147.81,311.15Z" transform="translate(-34.5 -158.15)"/><path class="cls-8" d="M235.69,331.73c4.88-2.45,9.78-5.17,14.55-8.17,2,13.19,1.82,25.61-.68,36.5-1.48.82-2.95,1.66-4.39,2.56-2.14,1.35-4.91,2.72-6.71,4.52-2.5-3.61-8.26-7-11.87-2.65a6.82,6.82,0,0,0-1.39,2.64.78.78,0,0,0-.69-.21,110.82,110.82,0,0,1-21,1.18,86.86,86.86,0,0,0-6-23.74C210.67,341.54,223.6,337.79,235.69,331.73Z" transform="translate(-34.5 -158.15)"/><path class="cls-9" d="M160.32,360.91c-5.33-2.74-11.28-6.69-14.34-12,12.06,1.58,24.39.51,36.75-1.67,4.94-.87,9.88-1.8,14.79-2.86a86.86,86.86,0,0,1,6,23.74c-7.75-.22-15.51-1-23.08-1.9C173.61,365.4,166.53,364.09,160.32,360.91Z" transform="translate(-34.5 -158.15)"/><path class="cls-10" d="M133.79,230.44c0-15.68,13.11-28.4,29.28-28.4s29.28,12.72,29.28,28.4-13.11,28.4-29.28,28.4S133.79,246.13,133.79,230.44Z" transform="translate(-34.5 -158.15)"/><path class="cls-7" d="M111,255.28l.76.13c-.11,4.93-2.2,15.55,3.65,17.89,4.64,1.85,7.2-3.14,7.64-6.81a22.24,22.24,0,0,0-.88-8.91h.06l.76.07c1.67,5.95,2,17-6.66,16.61a5.06,5.06,0,0,1-4.57-3.42.38.38,0,0,0-.27-.69C109.88,265.56,110.92,258.37,111,255.28Z" transform="translate(-34.5 -158.15)"/></svg>