<svg xmlns="http://www.w3.org/2000/svg" xmlns:xlink="http://www.w3.org/1999/xlink" viewBox="0 0 209.61 246.3"><defs><style>.cls-1,.cls-12{fill:none;}.cls-2{isolation:isolate;}.cls-3{clip-path:url(#clip-path);}.cls-4{fill:#89d4fb;}.cls-5,.cls-7,.cls-9{stroke:#487de0;stroke-linecap:round;stroke-linejoin:round;stroke-width:0.26px;}.cls-5{fill:url(#radial-gradient);}.cls-6{fill:#f5d1a1;}.cls-7{fill:url(#radial-gradient-2);}.cls-8{fill:#dcf3f9;}.cls-10,.cls-9{fill:#fff;}.cls-11{fill:#070707;}.cls-12{stroke:#070707;stroke-miterlimit:10;stroke-width:1.18px;}.cls-13{fill:#fff0af;}.cls-14{fill:#63573c;}.cls-15{fill:#dac89a;}.cls-16{fill:#e8eae0;}.cls-17{fill:#7f7f7f;opacity:0.49;mix-blend-mode:multiply;}.cls-18{fill:#46633c;}</style><clipPath id="clip-path" transform="translate(-80.88 -211.26)"><rect class="cls-1" x="33.45" y="115.36" width="299.01" height="341.47"/></clipPath><radialGradient id="radial-gradient" cx="165.16" cy="569.73" r="2.83" gradientUnits="userSpaceOnUse"><stop offset="0" stop-color="#aee0f7"/><stop offset="1" stop-color="#1daee3"/></radialGradient><radialGradient id="radial-gradient-2" cx="130.47" cy="574.95" r="3.94" xlink:href="#radial-gradient"/></defs><g class="cls-2"><g id="Camada_1" data-name="Camada 1"><g class="cls-3"><path class="cls-4" d="M269.91,366.9c-.66-14.53-2.72-29.34-9.69-42.18a5.26,5.26,0,0,1-1.49-1.94.9.9,0,0,1-.35-.37c-9.73-17.69-30.12-27.33-49.77-28.41-11.69-.65-23.47,1.43-35.07,2.6-12.84,1.28-24.89,3.09-35.54,11-30.78,22.93-28.21,65-25.71,99.11q.38,5.1.72,10.2a.46.46,0,0,1,.33-.16c4.94-.27,10.8,1.07,14.29,4.84,2.48,2.69,4.69,7.65,2.72,11.25a5.18,5.18,0,0,1-2.74,2.46.4.4,0,0,1-.45.14c-4.32,1.2-10.65-2.65-13.52-5.63q.09,3.59.08,7.2c-.09,12.9-1.2,25.7-2,38.56-.74,11.5-.84,23.08,2.72,34.17a70.92,70.92,0,0,0,16.15,27,1.41,1.41,0,0,1,.18.27c.29-.1.58-.19.86-.26l.41-.22a.49.49,0,0,1,.51,0c6.1-.77,9.53,6.68,14.36,10a.6.6,0,0,1,.21.61c13.27,7.69,30,7.64,44.83,6.33,8-.71,16-1.88,23.91-3.26s16.95-2.05,24-6.38c3.08-5.74,9.79-11,16.34-8.77a.91.91,0,0,1,.12-.51c4.5-8.32,10.47-15.21,12.95-24.55a121,121,0,0,0,3.55-29.6c.26-20.28-1.42-40.49-2.28-60.73C269.78,402.16,270.72,384.52,269.91,366.9Zm-58.63.32c-1.2,6.56-5.68,6.18-10.44,5,1.44,3.78,2.78,11.87-.77,14.83-2.88,2.4-8.34,1.6-9.28-2a5.43,5.43,0,0,1-4.3,3.76c-8,1.32-7.83-9.88-6.56-15.33a13.06,13.06,0,0,1-2.93,0c-2.82-.39-7.59-2.08-8.05-5.5-.44-3.26,1.62-6.09,3.93-8.2a21.05,21.05,0,0,1,6.33-4,.39.39,0,0,1,.16-.3,3.89,3.89,0,0,1-.63-2.06c0-3.41,5-6.17,11.15-6.17S201,350.07,201,353.48a3.63,3.63,0,0,1-.46,1.75C205.78,357.48,212.34,361.36,211.28,367.22Z" transform="translate(-80.88 -211.26)"/><path class="cls-4" d="M116.48,332c.17-.39.34-.78.52-1.16a5.6,5.6,0,0,1-1.09.11,5.27,5.27,0,1,1,4.89-7.23,64,64,0,0,1,8.76-11.27.88.88,0,0,1-.86-.26c-4.55-4.59-14.46-3.83-19.95-1.16a19,19,0,0,0-9.36,9.36c-4.42,10.38,2.32,19.3,12.54,21.78a.88.88,0,0,1,.66,1.15A78.79,78.79,0,0,1,116.48,332Z" transform="translate(-80.88 -211.26)"/><path class="cls-5" d="M168.51,569.16a8.22,8.22,0,0,0-4.15-.34,14.06,14.06,0,0,0-2.14.36c-.76.21-1.35,1.07-.55,1.32a.42.42,0,0,1,.25,0,13.49,13.49,0,0,0,4.11.16C166.45,570.63,170.43,570,168.51,569.16Z" transform="translate(-80.88 -211.26)"/><path class="cls-6" d="M145.31,546.66c-4.13-3.56-7.66-10.23-13.35-8.92a39.11,39.11,0,0,0-9.89,6.75c-1.49,1.49-3.25,3.38-3.57,5.57a6.74,6.74,0,0,0,2.14,5.59c-.92-4.44,2.32-8,6.11-10,.56-.29,1.06.55.5.85-3.55,1.86-6.75,5.21-5.53,9.5a.43.43,0,0,1-.12.47,6.5,6.5,0,0,0,2,.95c7.89,2.06,14-8,21.31-10.39A1.09,1.09,0,0,1,145.31,546.66Z" transform="translate(-80.88 -211.26)"/><path class="cls-7" d="M128.13,573.58c-.19,0-3.6,1.06-2.92,1.63a5.62,5.62,0,0,0,2.37,1,11.45,11.45,0,0,0,3.91.26,32.27,32.27,0,0,0,4.32-.4C134.18,573.71,130.87,573,128.13,573.58Z" transform="translate(-80.88 -211.26)"/><path class="cls-6" d="M241,543.84l.12.08a.42.42,0,0,1,.62-.13c5.22,3.6,8.69,11.47,15.22,12.89a9,9,0,0,0,5.11-.22c-.21-4-2.38-7.62-5.11-10.46-.44-.46.25-1.15.69-.7,2.81,2.93,5,6.61,5.37,10.7,1.89-1.14,3-3.32,2.63-6.44-.5-4.68-3.11-9.72-7.24-12.21C251.81,533.37,244.5,537.72,241,543.84Z" transform="translate(-80.88 -211.26)"/><path class="cls-4" d="M258.1,318.17a.92.92,0,0,1,.61.35,5.27,5.27,0,1,1,4.83,7.38l-.51,0a71.93,71.93,0,0,1,4.73,12.33c11.82-2.17,15.84-17,9.66-26.41-6.05-9.23-18.87-7.58-27.72-3.37A50,50,0,0,1,258.1,318.17Z" transform="translate(-80.88 -211.26)"/><path class="cls-4" d="M220.37,293.73A69.59,69.59,0,0,1,242.61,303a30.74,30.74,0,0,0,4.69-1.91c9.13-4.82,15.8-13.08,20.69-22,5.4-9.88,9.49-20.91,9-32.34a.38.38,0,0,0,0-.1c-4.33,4.42-9.05,8.44-14.65,11.13-.57.27-1.07-.57-.5-.84,5.79-2.79,10.63-7,15.08-11.61a41.94,41.94,0,0,0-4-15.61c-5.56,8.47-12.58,16-21.57,20-.58.25-1.08-.59-.5-.85,9-4,16-11.59,21.55-20.12A23.71,23.71,0,0,0,263,219c-8.95-4.84-18.81-1.05-23.14,8.1C230.09,247.74,247.38,283.07,220.37,293.73Z" transform="translate(-80.88 -211.26)"/><path class="cls-4" d="M162,295.78a58.07,58.07,0,0,1-12.5-28.51c-2.05-12.83-12.48-62.21-33-40.17a30.39,30.39,0,0,0-7.54,16.49c1.36.86,2.76,1.68,4.19,2.4,3.19,1.61,7.14,3.39,10.72,2,.59-.23.85.72.26.94-4.81,1.83-10.49-.87-15.35-4.12a57.91,57.91,0,0,0,.68,16.66,42.92,42.92,0,0,0,10.87,2.67c.62.06.63,1,0,1a43.06,43.06,0,0,1-10.67-2.55c.5,2.61,1.12,5.15,1.81,7.56,3.87,13.5,11.28,29.87,24.82,36.11a.58.58,0,0,1,.15.11,54.14,54.14,0,0,1,18.82-9.15C157.46,296.66,159.72,296.18,162,295.78Z" transform="translate(-80.88 -211.26)"/><path class="cls-6" d="M122.58,427.34c3.1,1,6.37,3.47,5.5,6.81a3.94,3.94,0,0,0,1.2-1.37c2.23-4.07-.55-9.6-4.09-11.94a19.36,19.36,0,0,0-11.85-3.08.41.41,0,0,1-.28-.07c.22,3.54.41,7.09.53,10.64a.81.81,0,0,1,.1.09c1.91,2.37,8.91,7.37,13.14,6.3,1.64-3.25-1.77-5.59-4.51-6.44A.49.49,0,0,1,122.58,427.34Z" transform="translate(-80.88 -211.26)"/><path class="cls-6" d="M284.57,425.14a19.32,19.32,0,0,0-11.86-3.08h-.11q.27,5.4.57,10.8c2.13,2.5,9.42,7.6,13.51,6,1.45-3.17-1.89-5.45-4.59-6.28-.6-.19-.34-1.13.26-.95,3,.92,6.1,3.27,5.6,6.4a4.44,4.44,0,0,0,.71-.95C290.88,433,288.11,427.47,284.57,425.14Z" transform="translate(-80.88 -211.26)"/><path class="cls-8" d="M193.68,400.87c-30.61,0-55.43,38.53-55.43,86.05,0,24.6,6.66,46.79,17.32,62.47.93.87,1.87,1.7,2.82,2.51,10.79,2.94,22.67,2.66,33.54,1.7,8-.71,16-1.88,23.91-3.26,5.74-1,11.94-1.62,17.6-3.48,9.69-15.5,15.66-36.64,15.66-59.94C249.1,439.4,224.29,400.87,193.68,400.87Z" transform="translate(-80.88 -211.26)"/><path class="cls-9" d="M192.55,370.77c-3.86.23-7.71,2.05-11.59,2.65a19.88,19.88,0,0,0-.44,9.59c.48,2,1.41,4.21,3.63,4.71,1.48.34,3.23.42,4.35-.84,3.23-3.62,2.18-10.16,1.84-14.61,0-.63.94-.63,1,0,.2,2.55.73,6.93.09,10.56a.5.5,0,0,1,.26.54c-.69,4,5.36,5.63,7.71,3a8.33,8.33,0,0,0,1.72-5.33,21.76,21.76,0,0,0-1.27-8.73.38.38,0,0,1,0-.33C197.26,371.38,194.68,370.64,192.55,370.77Z" transform="translate(-80.88 -211.26)"/><path class="cls-10" d="M133.45,333.13a24.91,24.91,0,1,1,24.91,24.92A24.91,24.91,0,0,1,133.45,333.13Z" transform="translate(-80.88 -211.26)"/><path class="cls-10" d="M221.1,355.41A24.92,24.92,0,1,1,246,330.49,24.92,24.92,0,0,1,221.1,355.41Z" transform="translate(-80.88 -211.26)"/><path class="cls-11" d="M260.07,321.42c-8.5-15.48-24.6-24.6-41.51-28.09-9.51-2-18.91-1.38-28.5-.43-11.49,1.13-23.62,1.41-34.82,4.34-17.72,4.62-31.58,18.2-38.76,34.72-6.73,15.48-7.77,32.92-7.49,49.57.19,11.1,1.13,22.18,1.92,33.24a333.46,333.46,0,0,1-.12,47c-1,14.68-2.82,29.36.47,43.88,2.79,12.32,9.33,23.41,17.92,32.56.87.92,2.25-.47,1.39-1.39a70.92,70.92,0,0,1-16.15-27c-3.56-11.09-3.46-22.67-2.72-34.17.82-12.86,1.93-25.66,2-38.56.07-10.13-.7-20.21-1.43-30.3-2.5-34.15-5.07-76.18,25.71-99.11,10.65-7.94,22.7-9.75,35.54-11,11.6-1.17,23.38-3.25,35.07-2.6,19.65,1.08,40,10.72,49.77,28.41.61,1.11,2.3.12,1.69-1" transform="translate(-80.88 -211.26)"/><path class="cls-11" d="M145.19,548.42c13.76,8.45,31.17,8.42,46.74,7.14,7.86-.65,15.66-1.84,23.43-3.16,8.58-1.45,18.15-2.16,25.68-6.86,1.07-.67.08-2.37-1-1.69-7.1,4.43-16.12,5.09-24.21,6.49-7.93,1.38-15.89,2.55-23.91,3.26-15.18,1.34-32.34,1.37-45.75-6.88-1.08-.66-2.07,1-1,1.7" transform="translate(-80.88 -211.26)"/><path class="cls-11" d="M163.89,297.51a1,1,0,0,0,0-2,1,1,0,0,0,0,2" transform="translate(-80.88 -211.26)"/><path class="cls-11" d="M111.93,342.13c-10.22-2.48-17-11.4-12.54-21.78a19,19,0,0,1,9.36-9.36c5.49-2.67,15.4-3.43,19.95,1.16a1,1,0,0,0,1.39-1.39c-4.84-4.86-13.74-4.34-19.83-2.45A20.89,20.89,0,0,0,97.7,319.36c-5.36,11.4,2.48,21.93,13.71,24.66,1.23.3,1.75-1.59.52-1.89" transform="translate(-80.88 -211.26)"/><path class="cls-11" d="M248.78,308.87c8.86-4.53,22.37-6.64,28.64,2.92s2.14,24.33-9.75,26.43c-1.25.22-.72,2.11.52,1.89,13.25-2.34,16.87-17.75,11.42-28.45-6-11.73-22.05-9.48-31.82-4.48-1.13.57-.13,2.27,1,1.69" transform="translate(-80.88 -211.26)"/><path class="cls-11" d="M179.83,356.41l.71-.1c0-.32-.08-.64-.13-1a22.55,22.55,0,0,0-7.53,4.47c-2.31,2.11-4.37,4.94-3.93,8.2.46,3.42,5.23,5.11,8.05,5.5,5.23.71,10.38-2.45,15.55-2.75,6.39-.39,16.8,7,18.73-3.55,1.29-7.1-8.61-11.3-13.73-13.2-.59-.22-.84.73-.26,1,5.37,2,14.18,5.76,12.88,12.86-1.48,8.12-12.58,2.1-17.62,2-7.24-.2-16.37,6.95-22.14-.79-2.34-3.14,1.77-7.21,3.86-9.12a18.6,18.6,0,0,1,6.41-3.59.49.49,0,0,0-.14-1,4,4,0,0,0-1,.13c-.62.11-.36,1.06.26,1" transform="translate(-80.88 -211.26)"/><path class="cls-11" d="M199.83,372.35a21.76,21.76,0,0,1,1.27,8.73,8.31,8.31,0,0,1-1.72,5.33c-2.35,2.59-8.4,1-7.71-3,.11-.62-.84-.88-.94-.26-.91,5.24,6,6.79,9.34,4,3.61-3,2.17-11.31.7-15-.23-.58-1.18-.33-.94.26" transform="translate(-80.88 -211.26)"/><path class="cls-11" d="M130.12,538.41c7.34-3.66,11.21,5.6,16.27,9.1l.12-.9c-8,1.28-14.45,13-22.9,10.79-3.07-.8-5.56-4.22-5.11-7.34.32-2.19,2.08-4.08,3.57-5.57a40.33,40.33,0,0,1,10.45-7c.56-.29.07-1.13-.5-.85-5.17,2.63-19.56,10.84-13.16,18.42,9,10.65,18.77-6,27.91-7.46.46-.07.43-.68.12-.9-5.55-3.84-9.25-13.09-17.26-9.1-.57.28-.07,1.13.49.85" transform="translate(-80.88 -211.26)"/><path class="cls-11" d="M121.72,556c-1.22-4.29,2-7.64,5.53-9.5.56-.3.06-1.14-.5-.85-4,2.08-7.31,5.9-6,10.62a.49.49,0,0,0,.94-.27" transform="translate(-80.88 -211.26)"/><path class="cls-11" d="M240.06,545.78c2.93-7.08,11.06-12.82,18.36-8.43,4.13,2.49,6.74,7.53,7.24,12.21.6,5.7-3.45,8.25-8.69,7.12-6.53-1.41-10-9.29-15.22-12.89-.52-.36-1,.49-.5.85,6.61,4.55,10.43,14.28,19.8,13.31,4.54-.47,6.1-5.16,5.5-9.12-.83-5.55-4.21-10.85-9.39-13.25-7.43-3.45-15.33,3.38-18.05,9.94-.24.58.71.84.95.26" transform="translate(-80.88 -211.26)"/><path class="cls-11" d="M257,546c2.78,2.88,5,6.57,5.12,10.67,0,.63,1,.63,1,0-.15-4.36-2.44-8.29-5.41-11.37-.44-.45-1.13.24-.69.7" transform="translate(-80.88 -211.26)"/><path class="cls-11" d="M272.71,422.06a19.32,19.32,0,0,1,11.86,3.08c3.54,2.33,6.31,7.86,4.09,11.94-3,5.57-13.23-1.43-15.6-4.36-.4-.49-1.09.21-.69.69,3.13,3.87,13.76,10.35,17.36,3.75,2-3.6-.25-8.55-2.73-11.24-3.48-3.78-9.35-5.12-14.29-4.84-.62,0-.63,1,0,1" transform="translate(-80.88 -211.26)"/><path class="cls-11" d="M282.09,432.58c2.76.85,6.18,3.2,4.5,6.47-.29.56.56,1.05.85.49,2-3.88-1.65-6.84-5.09-7.91-.6-.18-.86.76-.26.95" transform="translate(-80.88 -211.26)"/><path class="cls-11" d="M113.34,417.76a19.36,19.36,0,0,1,11.85,3.08c3.54,2.34,6.32,7.87,4.09,11.94-3,5.57-13.22-1.43-15.59-4.36-.4-.49-1.09.21-.7.7,3.14,3.86,13.76,10.34,17.36,3.75,2-3.6-.24-8.56-2.72-11.25-3.49-3.77-9.35-5.11-14.29-4.84-.63,0-.63,1,0,1" transform="translate(-80.88 -211.26)"/><path class="cls-11" d="M122.32,428.28c2.75.85,6.17,3.2,4.49,6.47-.28.56.56,1.06.85.5,2-3.89-1.65-6.85-5.08-7.91a.49.49,0,0,0-.26.94" transform="translate(-80.88 -211.26)"/><path class="cls-12" d="M246,330.49a24.92,24.92,0,1,0-24.92,24.92A24.92,24.92,0,0,0,246,330.49Z" transform="translate(-80.88 -211.26)"/><path class="cls-12" d="M183.27,333.13a24.91,24.91,0,1,0-24.91,24.92A24.91,24.91,0,0,0,183.27,333.13Z" transform="translate(-80.88 -211.26)"/><path class="cls-11" d="M268.81,320.63a5.27,5.27,0,1,0-5.27,5.27,5.27,5.27,0,0,0,5.27-5.27" transform="translate(-80.88 -211.26)"/><path class="cls-11" d="M121.18,325.64a5.27,5.27,0,1,0-5.27,5.27,5.27,5.27,0,0,0,5.27-5.27" transform="translate(-80.88 -211.26)"/><path class="cls-11" d="M201,353.48c0-3.41-5-6.17-11.15-6.17s-11.15,2.76-11.15,6.17,5,6.18,11.15,6.18S201,356.89,201,353.48" transform="translate(-80.88 -211.26)"/><path class="cls-11" d="M212,331.78a8.15,8.15,0,1,0,8.15,8.15,8.14,8.14,0,0,0-8.15-8.15m3.28,13.33a2.31,2.31,0,1,1,2.31-2.31,2.3,2.3,0,0,1-2.31,2.31" transform="translate(-80.88 -211.26)"/><path class="cls-11" d="M148.81,333.73a8.14,8.14,0,1,0,8.14,8.14,8.13,8.13,0,0,0-8.14-8.14m3.28,13.32a2.31,2.31,0,1,1,2.3-2.31,2.3,2.3,0,0,1-2.3,2.31" transform="translate(-80.88 -211.26)"/><path class="cls-11" d="M190.34,372.27c.34,4.45,1.39,11-1.84,14.61-1.12,1.26-2.87,1.18-4.35.84-2.22-.5-3.15-2.75-3.63-4.71a20.46,20.46,0,0,1,.61-10.18.49.49,0,0,0-.95-.26c-1.46,4.93-2.23,17.73,6.31,16.32,6.68-1.09,5.19-11.93,4.83-16.62,0-.63-1-.63-1,0" transform="translate(-80.88 -211.26)"/><path class="cls-11" d="M257.09,319.59c9.51,13.93,12.07,30.8,12.82,47.31.81,17.62-.13,35.26.63,52.9.86,20.24,2.54,40.45,2.28,60.73a121,121,0,0,1-3.55,29.6c-2.48,9.34-8.45,16.23-12.95,24.55-.6,1.11,1.09,2.1,1.69,1,4.08-7.54,9.73-14,12.35-22.29,2.9-9.17,4-18.74,4.31-28.31.74-21.77-1.2-43.54-2.17-65.27-.81-18,.14-36.1-.68-54.13-.75-16.4-3.61-33.27-13-47.07-.71-1-2.41-.06-1.69,1" transform="translate(-80.88 -211.26)"/><path class="cls-11" d="M136.27,306.28c-13.54-6.24-21-22.61-24.82-36.11-4-13.84-5.54-31.72,5-43.07,20.54-22,31,27.34,33,40.17a58,58,0,0,0,13.81,30.07c.42.48,1.08-.24.67-.72A55.37,55.37,0,0,1,150.6,268c-.66-4.41-1.55-8.79-2.56-13.14-2.4-10.3-5.52-22.18-12.82-30.2s-16.64-2.48-22.1,4.88c-7.81,10.53-6.18,26.21-3.34,38.13,3.49,14.6,11.55,32.78,26,39.46.57.26,1-.6.47-.87" transform="translate(-80.88 -211.26)"/><path class="cls-11" d="M218.16,294.53c30.15-9.59,11.68-46.24,21.71-67.43C244.2,218,254.06,214.16,263,219c9.76,5.29,13.59,17.33,14,27.71.46,11.43-3.63,22.46-9,32.34-4.89,8.94-11.56,17.2-20.69,22a31,31,0,0,1-5.16,2.06c-.6.19-.34,1.14.26.95,17.19-5.5,28.1-23.66,33.16-40,5-16,3.05-39.61-14.61-47.11-13.28-5.65-23.15,7.57-24.62,19.34-1.68,13.5,1.38,27.45-2.17,40.75-2.23,8.34-8.11,14-16.26,16.56-.61.19-.35,1.14.26.95" transform="translate(-80.88 -211.26)"/><path class="cls-11" d="M251.34,249.66c15.07-6.67,24.57-23.27,31-37.65.26-.57-.59-1.07-.85-.49-6.41,14.26-15.75,30.68-30.68,37.29-.58.26-.08,1.1.5.85" transform="translate(-80.88 -211.26)"/><path class="cls-11" d="M262.36,257.74c8.61-4.14,15.15-11.42,21.4-18.44.42-.47-.27-1.17-.69-.7-6.2,7-12.67,14.19-21.21,18.3-.57.27-.07,1.11.5.84" transform="translate(-80.88 -211.26)"/><path class="cls-11" d="M123.85,248c-3.58,1.35-7.53-.43-10.72-2a75.21,75.21,0,0,1-12.94-8.82,231.25,231.25,0,0,1-18.48-16.93.49.49,0,0,0-.69.69,214.24,214.24,0,0,0,20.76,18.74c5.36,4.1,14.87,12.13,22.33,9.3.59-.22.33-1.17-.26-.94" transform="translate(-80.88 -211.26)"/><path class="cls-11" d="M120.31,264.18c-9.57-.95-17.92-5.7-26.21-10.22-.55-.31-1,.54-.49.84,8.46,4.63,16.93,9.39,26.7,10.36.63.06.62-.92,0-1" transform="translate(-80.88 -211.26)"/><path class="cls-11" d="M136.89,575.94c-1.7-2.94-5.13-3.76-8.33-3.42-1.06.12-5.85,1.16-4.23,3.15,1.22,1.51,4.17,2,6,1.88,1.37-.09,2.75-.25,4.11-.44.58-.08,2.08,0,2.42-.68s-.54-1-.84-.49c-.22.4-3.88.46-4.56.53a11.45,11.45,0,0,1-3.91-.26,5.62,5.62,0,0,1-2.37-1c-.68-.57,2.73-1.59,2.92-1.63,2.87-.64,6.38.2,7.92,2.85a.49.49,0,0,0,.84-.49" transform="translate(-80.88 -211.26)"/><path class="cls-11" d="M161.66,571.44a14.31,14.31,0,0,0,7-.21c1.68-.5,1.73-2.29.17-3-2-.92-4.8-.48-6.84,0-2.46.6-2.63,3.26.19,3.32a.49.49,0,0,0,0-1c-1.46,0-.81-1.15.07-1.39a14.06,14.06,0,0,1,2.14-.36,8.22,8.22,0,0,1,4.15.34c1.92.88-2.06,1.47-2.48,1.5a13.49,13.49,0,0,1-4.11-.16c-.61-.15-.87.79-.26.94" transform="translate(-80.88 -211.26)"/><path class="cls-13" d="M117.22,397a10,10,0,0,1,1-4.26l11.58-9.73a12.58,12.58,0,0,1,6.49-2.82,57.34,57.34,0,0,1,10-.46c6.93.36,9,0,11.5,2.6s13.14,13.37,13.14,13.37l-14.21,23.78-28.09.5-9.82-15.17Z" transform="translate(-80.88 -211.26)"/><path class="cls-14" d="M166.55,422.42a25.19,25.19,0,0,1-22.28,13.52h-1.85a24.93,24.93,0,0,1-18.94-8.87l-.07-.09a34.08,34.08,0,0,1-3.32-4.54c-.21-.35-.4-.69-.59-1l-.33-.6c-.11-.21-.2-.41-.3-.62l-.2-.42c-.21-.47-.41-.94-.58-1.42a6.37,6.37,0,0,1-.23-.61,26.2,26.2,0,0,1-1.14-4.43c0-.16,0-.33-.08-.5-.07-.5-.13-1-.18-1.49a1.63,1.63,0,0,1,0-.31,69.81,69.81,0,0,1,0-10.75c.22-3.79.73-7,1.85-7.47,0,0-1.63,5.29,5.37,6.45l.82,4.66,2.84-3.29s1,2.54,4.66,2.76,4.77-1.27,7.93.74,6.19,4.65,9.33,3.7,4.56-4.66,8.83-4.87,5.07,2.12,7.51-1.16c1-1.34,1.88-2.59,2.67-3.62,1.14-1.49,2.05-2.48,2.71-2.41A45.42,45.42,0,0,1,166.55,422.42Z" transform="translate(-80.88 -211.26)"/><path class="cls-15" d="M137.38,381.28c-1.89.16-4,.45-5.2,1.82a2.3,2.3,0,0,0-.3,2.94,4.24,4.24,0,0,0,2.07,1c4.51,1.43,8.42,5.13,13.17,4.81a15,15,0,0,0,6.46-2.48c1.52-.9,3.18-2.1,3.25-3.81.13-3.42-3.79-4.1-6.42-4.17C146,381.33,141.81,380.91,137.38,381.28Z" transform="translate(-80.88 -211.26)"/><path class="cls-10" d="M154.59,385.77c-.05,1.23-1.12,2.15-2.24,2.87l-.44.26a14.71,14.71,0,0,1-4.06,1.84,6.66,6.66,0,0,1-1.25.21,7.1,7.1,0,0,1-1.73-.1c-3.17-.52-6-2.86-9.12-3.87a3.6,3.6,0,0,1-1.67-.82l0,0a1.89,1.89,0,0,1,.25-2.43c1-1.13,2.72-1.36,4.27-1.5,3.22-.26,10.3.12,10.73.13s1.5.12,1.5.12C152.71,382.73,154.68,383.56,154.59,385.77Z" transform="translate(-80.88 -211.26)"/><path class="cls-16" d="M152.35,388.64l-.44.26A12.38,12.38,0,0,1,146.6,391c-3.91.26-7.13-2.79-10.85-4a3.6,3.6,0,0,1-1.67-.82c.39-.23.78-.43,1.08-.58a10.35,10.35,0,0,1,3.67-1.06,11.59,11.59,0,0,1,7.73,2.09,13.31,13.31,0,0,0,2.54,1.68A6.74,6.74,0,0,0,152.35,388.64Z" transform="translate(-80.88 -211.26)"/><path class="cls-17" d="M166.55,422.42a25.19,25.19,0,0,1-22.28,13.52h-1.85a24.93,24.93,0,0,1-18.94-8.87l-.07-.09a34.08,34.08,0,0,1-3.32-4.54c-.21-.35-.4-.69-.59-1l-.33-.6c-.11-.21-.2-.41-.3-.62l-.2-.42c-.21-.47-.41-.94-.58-1.42a6.37,6.37,0,0,1-.23-.61,26.2,26.2,0,0,1-1.14-4.43c0-.16,0-.33-.08-.5-.07-.5-.13-1-.18-1.49,0-.1,0-.22,0-.32h0a31.62,31.62,0,0,0,4.2,6.15l.09.1a24.94,24.94,0,0,0,18.94,8.86h1.84a25.2,25.2,0,0,0,22.28-13.51,42.46,42.46,0,0,0,4.45-14.45c1.14-1.49,2.05-2.48,2.71-2.41A45.42,45.42,0,0,1,166.55,422.42Z" transform="translate(-80.88 -211.26)"/><path class="cls-18" d="M175.67,369.15,174,371.67l-9.35-2.55-16.81,21.62a6.66,6.66,0,0,1-1.25.21,7.1,7.1,0,0,1-1.73-.1l17.95-24.09Z" transform="translate(-80.88 -211.26)"/><path class="cls-6" d="M200,356.05c-1.76,2.13-5.64,3.61-10.14,3.61-4.18,0-7.82-1.28-9.73-3.16a17.33,17.33,0,0,0-5.89,3.38c-2.09,1.91-6.2,6-3.86,9.12,2.74,3.67,6.24,4,9.93,3.33a.51.51,0,0,1,.45-.08c4-.78,8.1-2.56,11.76-2.46,5,.14,16.14,6.16,17.62-2C211.26,361.85,205.18,358.23,200,356.05Z" transform="translate(-80.88 -211.26)"/></g></g></g></svg>