<svg id="Camada_1" data-name="Camada 1" xmlns="http://www.w3.org/2000/svg" viewBox="0 0 273.89 180.78"><defs><style>.cls-1{fill:#5b2f14;}.cls-2{fill:#f5d1a1;}.cls-3{fill:#fff;}.cls-4{fill:#89d4fb;}.cls-5{fill:#a9e0f6;}.cls-6{fill:#dcf3f9;}.cls-7{fill:#070707;}.cls-8{fill:none;stroke:#070707;stroke-miterlimit:10;stroke-width:1.76px;}</style></defs><path class="cls-1" d="M245.9,332.24l.09.07a1.26,1.26,0,0,0,1.93.06,1.11,1.11,0,0,0,.3-.52c.32.07.64.16,1,.22a.88.88,0,0,0,1,.25,1,1,0,0,0,.26-.16,7.5,7.5,0,0,0,.81-.11.66.66,0,0,0,.29-.14,9.36,9.36,0,0,0,6.65-.44l.11,0c3,.65,6.2,1.57,8.45-.3l0,0a.75.75,0,0,0,.74.75,4.78,4.78,0,0,0,1.77-.53.76.76,0,0,0,.17-.13.79.79,0,0,0,.86.07.78.78,0,0,0,1.07-.31,4.75,4.75,0,0,0,.31.59.74.74,0,0,0,1.34-.17,2.89,2.89,0,0,1,0-.29.71.71,0,0,0,1,.14.73.73,0,0,0,1.29,0,.88.88,0,0,0,.22.1.85.85,0,0,0,.57.49c.25.07.4-.05.62-.08a.88.88,0,0,0,.71-.67.71.71,0,0,0,.4-.21.76.76,0,0,0,1,.11.73.73,0,0,0,1.27,0l.2-.41a.68.68,0,0,0,1,0l.16-.17a.5.5,0,0,0,.2.08v0c.11.7,1,.62,1.33.18a9.68,9.68,0,0,0,.79-1.26.83.83,0,0,0,.88-.51l.15-.43a.55.55,0,0,0,.18-.19c.57-.9.76-1.13.68-1.59a4.06,4.06,0,0,0,.32-1.76,11.1,11.1,0,0,0-.81-4.54.87.87,0,0,0-.27-.37,29.24,29.24,0,0,0-.51-2.94.73.73,0,0,0-.71-.53,18.14,18.14,0,0,0,.61-2l0-.08q1.08,1,2.22,1.95a13.13,13.13,0,0,0,2.87,4c.78,1.62,1.44,3.28,2.24,4.94a2.29,2.29,0,0,0,.12.37,1.67,1.67,0,0,0,.09.31c0,.59.12.71.71,1.46a.71.71,0,0,0,1.18-.25.59.59,0,0,0,.17-.6c0-.22,0-.43,0-.62l0,0a.62.62,0,0,0,.42-.27.54.54,0,0,0,.22,0,.73.73,0,0,0,.25,0,.69.69,0,0,0,1,.18.71.71,0,0,0,.34.13.58.58,0,0,0,.74.23c.42-.17.83-.34,1.22-.52a4.42,4.42,0,0,0,1.11.07.65.65,0,0,0,.67.48,13.17,13.17,0,0,0,3.37-.66l.12,0,.55.34a.72.72,0,0,0,.68.48c1.59,0,2.53-1.19,3.42-2.42a.63.63,0,0,0,0-.74,5.3,5.3,0,0,0,.1-.74c.57-.41,1.14-.82,1.69-1.25a21.58,21.58,0,0,0,4.37-2.94,35.18,35.18,0,0,1,4.79-1.65.72.72,0,0,0,.25-1.25.69.69,0,0,0,0-.25,8.54,8.54,0,0,0-2.07-5.58l-.07-.05a11.25,11.25,0,0,0-.62-1.12.7.7,0,0,0-.43-.31l0,0h0a1.34,1.34,0,0,0-.07-.18.63.63,0,0,0-.92-.27l0,0-2.55-1.55-.74-.55c-.5-.35-1,0-1,.51l-.54-.2a18.08,18.08,0,0,0-3.64-1.71.7.7,0,0,0-.9.76l-1.2-.67a33.19,33.19,0,0,0-6.55-3.14,13.49,13.49,0,0,0-3.43-1.16,9,9,0,0,0-1.51-.26l-.86-.51a.68.68,0,0,0-1,.24l-1.7-.77a.76.76,0,0,0-1.06.45l-.11,0-.87-.06c-4.66-1.11-9.25-2.55-14-1.5l-1.95-.27a.78.78,0,0,0-.64.19c-.48-.22-1-.44-1.45-.64a5,5,0,0,0-1.2-1.82,18.23,18.23,0,0,0,.09-3.39,2.64,2.64,0,0,1,0-.28.75.75,0,0,0-.09-.39,13.94,13.94,0,0,0-.21-1.4c-.16-.86-1.38-.59-1.43.19,0,.3,0,.6-.05.9a.63.63,0,0,0-.46.5c-.07.31-.15.62-.23.92-.36.68-.73,1.34-1.11,2-.55.61-1.09,1.23-1.6,1.86a2.45,2.45,0,0,0-1.48-.72c-.81-1.18-1.9-2-3-1a.73.73,0,0,0-1.36.29.77.77,0,0,0-.16.19.73.73,0,0,0-1.42-.34v0a.75.75,0,0,0-.75.43c-.28-.56-1.26-.68-1.37.07l0,.21c-.05.2-.11.41-.17.61a.58.58,0,0,0-.14,0,.78.78,0,0,0-.4,0,.91.91,0,0,0-.21-.18l-.43-.22a.77.77,0,0,0-.89.11l-.43.34-.06.06a.79.79,0,0,0-1,.11.87.87,0,0,0-.78.74c-.18,2-.25,1.68.08,2.88a.61.61,0,0,0-.05.12c-.28,1.12-.55,2.24-.8,3.37-2,3.66-2.29,8.86-1.82,13-.06,1.16-.09,2.33-.08,3.5-.16.87-.32,1.75-.46,2.63a.75.75,0,0,0-.18,1,18.67,18.67,0,0,0-.53,6A2.91,2.91,0,0,0,245.9,332.24Zm52.74-18.76c0,.09-.06.18-.1.27h0l.09-.28Zm-4.81-.61h0Zm-22.21-9.1.3.21-.43-.27Zm-15.69.52.18.11,0,0Zm10.17-6.24v0Zm4.53,25s0,.07,0,.1a.83.83,0,0,1-.07-.13Zm14-22.56Zm-31.51,27-.24-.13.23.11ZM283,313.31v0Zm-36.57,12.45.08.09h-.09A.34.34,0,0,0,246.43,325.76Zm16.61,4.5-.17,0,.16,0Zm8.83-1.89v0c0-.15,0-.3,0-.46,0,0,0,.06,0,.08S271.87,328.24,271.87,328.37Z" transform="translate(-62.76 -157.34)"/><path class="cls-1" d="M109.82,319.24a16.77,16.77,0,0,0,4.33-.62c.66-.13,1.31-.22,2-.33a5.39,5.39,0,0,1,.3-.52.69.69,0,0,1,.71-.33.65.65,0,0,1,.24,0A.79.79,0,0,1,118,317c0-.07.06-.14.1-.21a.66.66,0,0,1,.62-.35h.1a.87.87,0,0,1,.43.16.77.77,0,0,1,1.08.66,1.48,1.48,0,0,0,0,.21.85.85,0,0,1,.09.24c0,.07,0,.13,0,.2h0c.05.37.09.73.12,1.1.14,1.36.19,2.73.2,4.1a.61.61,0,0,1,.49.06.74.74,0,0,1,.19-.46.76.76,0,0,1,1.27,0,15.65,15.65,0,0,1,2.12,4.37.74.74,0,0,1-1.22.72l-.44-.45a1,1,0,0,1-.26-.2.5.5,0,0,1-.21-.12.58.58,0,0,1-.77,0,9.39,9.39,0,0,1-1-.79.67.67,0,0,1-.55-.07l-.33-.22a.6.6,0,0,1-.59.32,10.25,10.25,0,0,1-2.53-.56c-2.07-.57-5.25-1.91-6-3.86a14.67,14.67,0,0,1-1.68-1.4A.74.74,0,0,1,109.82,319.24Z" transform="translate(-62.76 -157.34)"/><path class="cls-2" d="M144.64,318.34c4.28-.37,9.09,1.69,7.81,6.86-.92,3.66-3.74,6.44-6.89,8.35a22.19,22.19,0,0,1-5.71,2.67c-1.8.47-8.8.76-6.27-3.4,1.84-3,5.78-4.95,9.2-5.44.93-.14.53-1.55-.39-1.41-3.11.45-10.17,3.3-10.6,7.34C128.64,326.52,138,319.61,144,318A.6.6,0,0,0,144.64,318.34Z" transform="translate(-62.76 -157.34)"/><path class="cls-2" d="M127.54,220c3.26.7,6.29.18,7.76-1.16,2,1.54,7.13,6.4,3.45,8-1.26.54-3.06.34-4.39.3a59,59,0,0,1-10.54-.91c-3.64-.79-6.88-3.88-5.44-7.89a5.33,5.33,0,0,1,2.42-3C121.35,217.3,124,219.24,127.54,220Z" transform="translate(-62.76 -157.34)"/><path class="cls-2" d="M119.44,305a.75.75,0,0,0,.25.36V309c0,2.14,0,4.34,0,6.54a.35.35,0,0,0-.14,0c-3.68,1.34-9.21,3.43-13.12,2.22-1-.31-4.77-1.83-3.65-3.55a4.76,4.76,0,0,1,2.45-1.8,10.52,10.52,0,0,1,6.08-.4.74.74,0,0,0,.39-1.42c-2.11-.5-7.9.09-9.92,2.28C102.69,307.31,118.3,301.46,119.44,305Z" transform="translate(-62.76 -157.34)"/><path class="cls-3" d="M120.87,213.67a6.24,6.24,0,0,0-2.74,2.06c-5.36-2.84-8.73-10.5-8.33-17.13a7.93,7.93,0,1,0,3.29-8.2c5.65-6.29,15.32-4.4,22.12-.34h0a44,44,0,0,0-8.81,21.07C123.68,211.17,121.49,212.11,120.87,213.67Z" transform="translate(-62.76 -157.34)"/><path class="cls-4" d="M253.43,201.68c2.3,6.78-1.64,11.91-8.08,13.76-1.09-2.41-2.28-4.78-3.58-7.07a3.73,3.73,0,1,0-3.41-5.42,68.79,68.79,0,0,0-5.48-6.92,1.43,1.43,0,0,0,.85-.39C239.46,190.45,251.1,194.82,253.43,201.68Z" transform="translate(-62.76 -157.34)"/><path class="cls-4" d="M153.36,176.13c-3.68-7.36,4.29-18,12.76-15.58,5.65,1.62,8.6,6.94,10.07,12.3a70.91,70.91,0,0,0-8.79.57,3.73,3.73,0,1,0-6,.13,3.6,3.6,0,0,0,.8.76,56.45,56.45,0,0,0-8.7,2.59A1.39,1.39,0,0,0,153.36,176.13Z" transform="translate(-62.76 -157.34)"/><path class="cls-4" d="M125.47,326.77a.43.43,0,0,1,.12.11,25.53,25.53,0,0,1,4,1.15.7.7,0,0,1,.38.31c1.57-5.72,8.84-10.64,14.07-11.86a.71.71,0,0,1,.81.38c4.85-.34,9.16,1.79,9.21,7.14a10,10,0,0,1-2.68,6.58c5,1.23,12.35,2,17.14-.22,4.54-2.1,7.19-8.26,10.23-12,.52-.65,1.31.09,1.22.71-.28,2.05-.68,4-1.14,6-.35,1.38-.65,2.77-.91,4.17,0,.26-.1.49-.15.72a10.26,10.26,0,0,1,4.83-4.32.74.74,0,0,1,1.08.82c-1.87,8.23,11.62,7.31,16.58,7.14,8.05-.29,16.08-.64,24.14-.86,6.31-.18,12.62-.47,18.93-.79-.43-24.15,8.52-47,8.55-71,0-22-6.45-46.81-21.48-63.39-26.4-29.12-93.31-33.66-101.07,13.93h0c4.27.93,7.31,3.58,6.8,5.94,0,.08-.05.14-.07.21a11.17,11.17,0,0,1,5,6.22,3.76,3.76,0,0,1-2.67,4.61,19.33,19.33,0,0,1-4.7.2c-1.14,2.16-.39,4.89-1.47,7.1a3.69,3.69,0,0,1-4,2.07c-3.65,15.45-4.87,31.29-5.39,47.12-.25,7.6-.28,15.19-.28,22.79,0,4.85-.34,10.06.53,14.89a21.59,21.59,0,0,0,2,3.89Z" transform="translate(-62.76 -157.34)"/><path class="cls-5" d="M122.9,284.92c.52-15.83,1.74-31.67,5.39-47.12a3.68,3.68,0,0,0,4-2.07c1.08-2.21.33-4.94,1.47-7.1a19.33,19.33,0,0,0,4.7-.2,3.76,3.76,0,0,0,2.67-4.61,11.17,11.17,0,0,0-5-6.22c0-.07,0-.13.07-.21.51-2.36-2.53-5-6.8-5.94h0C132.25,193.5,143.59,183,158,178.37c24.27,9.28,42.46,47.76,42.46,93.82,0,23-4.55,44.17-12.13,60.71-3.2-.9-5.48-2.74-4.64-6.45a.74.74,0,0,0-1.08-.82,10.26,10.26,0,0,0-4.83,4.32c0-.23.1-.46.15-.72.26-1.4.56-2.79.91-4.17.46-2,.86-4,1.14-6,.09-.62-.7-1.36-1.22-.71-3,3.78-5.69,9.94-10.23,12-4.79,2.21-12.1,1.45-17.14.22a10,10,0,0,0,2.68-6.58c-.05-5.35-4.36-7.48-9.21-7.14a.71.71,0,0,0-.81-.38c-5.23,1.22-12.5,6.14-14.07,11.86a.7.7,0,0,0-.38-.31,25.53,25.53,0,0,0-4-1.15.43.43,0,0,0-.12-.11l-.34-.28a21.59,21.59,0,0,1-2-3.89c-.87-4.83-.54-10-.53-14.89C122.62,300.11,122.65,292.52,122.9,284.92Z" transform="translate(-62.76 -157.34)"/><path class="cls-6" d="M125.47,326.77l-.34-.28a21.59,21.59,0,0,1-2-3.89c-.87-4.83-.54-10-.53-14.89,0-7.6,0-15.19.28-22.79a272.49,272.49,0,0,1,3.34-37c2.79-2.85,5.87-4.44,9.11-4.44,12.52,0,22.67,23.71,22.67,53,0,13.14-2.05,25.15-5.44,34.41l-1.2-.28a10,10,0,0,0,2.68-6.58c-.05-5.35-4.36-7.48-9.21-7.14a.71.71,0,0,0-.81-.38c-5.23,1.22-12.5,6.14-14.07,11.86a.7.7,0,0,0-.38-.31,25.53,25.53,0,0,0-4-1.15A.43.43,0,0,0,125.47,326.77Z" transform="translate(-62.76 -157.34)"/><path class="cls-3" d="M172,244.37A25.38,25.38,0,1,0,146.65,219,25.38,25.38,0,0,0,172,244.37Z" transform="translate(-62.76 -157.34)"/><path class="cls-7" d="M162.46,205.83A7.93,7.93,0,1,0,163,217a7.93,7.93,0,0,0-.55-11.2m-11.08,7.47a2.25,2.25,0,1,1,3.17-.16,2.25,2.25,0,0,1-3.17.16" transform="translate(-62.76 -157.34)"/><path class="cls-8" d="M146.66,219A25.38,25.38,0,1,1,172,244.37,25.38,25.38,0,0,1,146.66,219Z" transform="translate(-62.76 -157.34)"/><path class="cls-7" d="M128.35,237.63c-3.69,15.51-4.91,31.4-5.44,47.3-.25,7.59-.28,15.19-.28,22.79,0,5.26-.4,10.93.77,16.09.42,1.84-2.41,2.62-2.82.78-1.14-5-.87-10.44-.88-15.57,0-8,0-16.06.28-24.09.47-16.14,1.81-32.34,5.54-48.08.44-1.83,3.26-1.06,2.83.78" transform="translate(-62.76 -157.34)"/><path class="cls-7" d="M122.88,191.08a7.93,7.93,0,1,0,.55,11.2,7.91,7.91,0,0,0-.55-11.2" transform="translate(-62.76 -157.34)"/><path class="cls-7" d="M135.55,217.24c2.5,1.53,4.78,3.68,5.54,6.59a3.75,3.75,0,0,1-2.67,4.6c-2.65.52-5.6.14-8.27-.06a40.17,40.17,0,0,1-8-1.06,7.44,7.44,0,0,1-4.89-10c2.18-5,7.54-4.9,11.73-2.57.83.46.09,1.73-.74,1.27-3.58-2-8.2-2.19-9.81,2.31-1.44,4,1.79,7.1,5.43,7.89a59.07,59.07,0,0,0,10.54.91c1.33,0,3.14.24,4.39-.31,4-1.74-2.46-7.42-3.95-8.33-.8-.49-.07-1.76.74-1.26" transform="translate(-62.76 -157.34)"/><path class="cls-7" d="M133.75,228.59c-1.18,2.16-.41,4.92-1.5,7.14a3.59,3.59,0,0,1-4.52,1.89c-3.38-1.46-2.36-7.41-1.73-10.18.2-.93,1.61-.54,1.41.39-.47,2.09-1.41,6.74.6,8.29a2.1,2.1,0,0,0,2.55-.4c.71-.7.81-2.12.93-3.05.19-1.62.19-3.35,1-4.82.46-.83,1.72-.09,1.27.74" transform="translate(-62.76 -157.34)"/><path class="cls-7" d="M135.22,190.06c-7.39-4.41-18.17-6.26-23.5,2.17-4.54,7.18-.66,20.25,6.93,23.77.86.39.11,1.66-.74,1.26-8-3.68-12-16.7-8.09-24.49,5.16-10.34,17.5-9.13,26.14-4a.73.73,0,0,1-.74,1.26" transform="translate(-62.76 -157.34)"/><path class="cls-7" d="M244.87,215.58c6.73-1.73,10.93-6.94,8.57-13.9s-14-11.23-19.69-6c-1.4,1.26-3.47-.8-2.07-2.07,7.26-6.6,20.13-1.87,24.11,6.18,4.23,8.54-1.8,16.5-10.14,18.65-1.83.47-2.61-2.36-.78-2.83" transform="translate(-62.76 -157.34)"/><path class="cls-7" d="M176.55,174.25c-1.32-5.8-4.28-11.94-10.42-13.7-8.46-2.43-16.44,8.22-12.76,15.58.85,1.69-1.68,3.17-2.52,1.48-4.28-8.55,1.57-17,10-19.69,10-3.19,16.63,7.35,18.51,15.55.42,1.83-2.41,2.61-2.83.78" transform="translate(-62.76 -157.34)"/><path class="cls-7" d="M162.08,168.32a3.73,3.73,0,1,1-.65,5.24,3.74,3.74,0,0,1,.65-5.24" transform="translate(-62.76 -157.34)"/><path class="cls-7" d="M238,204.65a3.73,3.73,0,1,1,3.73,3.74,3.73,3.73,0,0,1-3.73-3.74" transform="translate(-62.76 -157.34)"/><path class="cls-7" d="M120.76,214.07c.51-2.36,4.38-3.53,8.64-2.61s7.3,3.58,6.79,5.94-4.38,3.53-8.63,2.6-7.3-3.57-6.8-5.93" transform="translate(-62.76 -157.34)"/><path class="cls-1" d="M109,318.89c4.78,8.36,12.94,6.21,20.58,9.14.88.34.5,1.75-.39,1.41C125.32,328,121,328,117,327a14.82,14.82,0,0,1-9.23-7.35.73.73,0,0,1,1.26-.73" transform="translate(-62.76 -157.34)"/><path class="cls-1" d="M106.28,319.48c-13.21,6.73-28.7,3.57-42.82,2.57-.93-.07-.94-1.53,0-1.46,13.8,1,29.18,4.2,42.09-2.38.83-.43,1.58.84.73,1.27" transform="translate(-62.76 -157.34)"/><path class="cls-7" d="M121.51,318.55a7.2,7.2,0,0,0,.73,3.11,15.47,15.47,0,0,0,1.79,3.65l-1.27.74a20.33,20.33,0,0,1-1.9-6c-.14-.91,1.2-1.33,1.41-.39a21,21,0,0,0,2.94,6.94c.43.65-.39,1.31-1,1l-.22-.11.89-1.15.65.65-1.15.88-.32-.39a.73.73,0,0,1,1-1,3,3,0,0,0,.39.31c.74.57,0,1.84-.74,1.27-.24-.18-.47-.36-.69-.55l1-1a6,6,0,0,1,.54.68c.49.7-.57,1.47-1.15.89l-.64-.64a.73.73,0,0,1,.88-1.15l.22.1-1,1a22,22,0,0,1-3.09-7.29l1.41-.39a19,19,0,0,0,1.76,5.64.74.74,0,0,1-1.27.74c-1.37-2-3.07-5.4-2.66-7.89.16-.93,1.57-.53,1.41.39" transform="translate(-62.76 -157.34)"/><path class="cls-7" d="M126.56,236.69c-5.35,3.85-4.6-6.68-4.33-9.25.1-.93,1.56-.94,1.47,0a38.61,38.61,0,0,0-.26,5.16,7.86,7.86,0,0,0,.49,2.84c.43,1,1.23.46,1.9,0s1.49.72.73,1.27" transform="translate(-62.76 -157.34)"/><path class="cls-7" d="M126.35,211.71c6.82-47.86,69.26-46.79,99.63-22.23,17.38,14.05,25.44,36.71,28,58.35a127.29,127.29,0,0,1-1.81,39.38c-2.92,14.93-6.14,29.51-5.86,44.82,0,1.89-2.89,1.89-2.92,0-.46-24.18,8.52-47,8.54-71.12,0-22-6.45-46.81-21.48-63.4-26.58-29.33-94.29-33.73-101.24,15-.27,1.86-3.09,1.06-2.82-.78" transform="translate(-62.76 -157.34)"/><path class="cls-1" d="M250.8,295.06c2.71-.47,7.15-2.84,9.88-1.3,1.72,1,1.65,2.65,3.23.13,1.78-2.82,2.48-6.3,4.17-9.21a.74.74,0,0,1,1.34.56c-.74,3.88-1.37,7.27.39,11,.19.41,6.12.16,6.31.17a110.4,110.4,0,0,1,22.12,3.76,98.45,98.45,0,0,1,10.48,4c2.25.94,5,1,7.12,2,4.38,2.23,4,6.95,5.1,11.17a.74.74,0,0,1-.71.93c-7.1.47-9.73,3.26-13.79,8.71a.77.77,0,0,1-.82.33,34.37,34.37,0,0,0-8.47-.38.74.74,0,0,1-.7-.93c.45-2-.91-8.14-.3-3.18a8.86,8.86,0,0,1,0,3.59c-.62,1.88-1.58,2.47-3.53,2.58a.76.76,0,0,1-.7-.54,50.34,50.34,0,0,0-4.16-9.08c-.06-.1-3.92-5.75-2.68-1.92.52,1.62,1,3.23,1.46,4.87.65,2.49,1,6.35-1.56,8-5.39,3.33-14.13,1.76-20.18,2-10.48.41-21,1-31.42,1.5-12.47.55-25.2,1.37-37.68,1.26-5.8-.05-15.22-1.12-13.42-9.05l1.08.83c-2.9,1.27-4.42,3.67-5.44,6.56a.75.75,0,0,1-.7.54h-.41a.74.74,0,0,1-.74-.73c.28-5,1.84-9.7,2.5-14.62l1.23.71c-3.26,4.06-6.51,11.4-12,13-5.3,1.5-11.82.94-17.11-.41a.73.73,0,0,1,.38-1.41c5.05,1.28,12.6,2.13,17.5-.13,4.54-2.1,7.19-8.26,10.23-12.05.52-.64,1.31.09,1.22.72-.27,2-.67,4-1.14,6-.34,1.39-.65,2.77-.91,4.17-.71,3.64-1,4.44-.91,2.38a10.17,10.17,0,0,1,5.6-6,.74.74,0,0,1,1.07.83c-1.86,8.23,11.62,7.3,16.58,7.13,8-.28,16.08-.63,24.14-.86,13.47-.38,26.92-1.27,40.39-1.84,4.47-.19,18.46,1.72,20.56-3.49,1.34-3.32-1.53-8.91-2.51-12.07a.74.74,0,0,1,.9-.9c3.4,1.07,5.16,3.86,6.77,6.89a49.34,49.34,0,0,1,2.37,5.61c.92,2.43,1.79-4.08,1.79-4-.1-1.08-.26-2.14-.32-3.22a.74.74,0,0,1,.93-.71c2.83,1,3.21,2.93,2.93,5.84-.08.85,5.21.81,6,.9,1.89.23,2.83-2,3.78-3.18a13.17,13.17,0,0,1,7.42-5.1c1.85-.48,4,.37,3.53-2.14-.81-4.31-2.32-7.37-7.3-8.33-5.95-1.15-11.62-4.9-17.61-6.36a105.09,105.09,0,0,0-21.32-2.9c-1.89-.06-2.95,1-4.2-.7-2.56-3.44-1.25-8.38-.53-12.14l1.34.57c-2.35,4-3.24,8.5-6.3,12.1a.73.73,0,0,1-1.15-.15c-2-4.39-7.74-1.42-10.71-.9-.93.16-1.32-1.25-.39-1.41" transform="translate(-62.76 -157.34)"/><path class="cls-1" d="M319.88,316.86c5.38.06,10.71.79,16.07,1.23.93.08.94,1.54,0,1.47-5.36-.45-10.69-1.18-16.07-1.24a.73.73,0,0,1,0-1.46" transform="translate(-62.76 -157.34)"/><path class="cls-3" d="M125.78,235.44c-.66.47-1.44,1-1.87,0a7.65,7.65,0,0,1-.49-2.84,36.91,36.91,0,0,1,.23-4.93c.72.15,1.46.26,2.2.34C125.42,230.06,125,233.23,125.78,235.44Z" transform="translate(-62.76 -157.34)"/><path class="cls-3" d="M130.54,235.72a2.1,2.1,0,0,1-2.55.4c-1.91-1.47-1.16-5.75-.68-8l2.81.21,2,.16a18,18,0,0,0-.69,4.14C131.35,233.6,131.25,235,130.54,235.72Z" transform="translate(-62.76 -157.34)"/><path class="cls-7" d="M119.94,317c-4.76,1.74-14.27,5-18.08-.34s6.82-6.75,9.84-6c.92.22.53,1.63-.39,1.41a10.61,10.61,0,0,0-6.08.4,4.82,4.82,0,0,0-2.45,1.8c-1.12,1.73,2.65,3.24,3.65,3.55,3.91,1.21,9.44-.87,13.13-2.21.88-.33,1.26,1.09.38,1.41" transform="translate(-62.76 -157.34)"/><path class="cls-7" d="M101,315.85c-3-4.76,4.32-9.13,7.69-10.85,2.55-1.3,10.72-5,12.2-.43.29.9-1.12,1.28-1.41.39-1.29-3.95-21.11,4.05-17.21,10.15.51.8-.76,1.53-1.27.74" transform="translate(-62.76 -157.34)"/><path class="cls-7" d="M144.66,316.88c4.93-.42,9.37,1.7,9.41,7.13,0,5.7-5.65,9.82-10.14,12.15-3.48,1.81-11,4-12.08-1.73-.91-4.63,7.16-8,10.55-8.46.92-.13,1.32,1.28.39,1.41-3.41.5-7.35,2.43-9.19,5.45-2.54,4.16,4.46,3.87,6.26,3.39a22,22,0,0,0,5.71-2.66c3.16-1.92,6-4.69,6.89-8.35,1.28-5.17-3.52-7.23-7.8-6.87-.94.08-.94-1.38,0-1.46" transform="translate(-62.76 -157.34)"/><path class="cls-7" d="M131.25,335.29c-5.74-8.21,5.51-17.1,12.8-18.8.92-.21,1.31,1.2.39,1.41-6.37,1.48-17,9.32-11.93,16.65.54.78-.73,1.51-1.26.74" transform="translate(-62.76 -157.34)"/><path class="cls-3" d="M111.81,198.54a2.24,2.24,0,1,0-.16-3.16,2.24,2.24,0,0,0,.16,3.16" transform="translate(-62.76 -157.34)"/></svg>