<?xml version="1.0" encoding="UTF-8"?>
<svg width="257px" height="32px" viewBox="0 0 257 32" version="1.1" xmlns="http://www.w3.org/2000/svg" xmlns:xlink="http://www.w3.org/1999/xlink">
    <!-- Generator: Sketch 62 (91390) - https://sketch.com -->
    <title>Group</title>
    <desc>Created with Sketch.</desc>
    <defs>
        <polygon id="path-1" points="0.183317611 0.0890434783 62.6509221 0.0890434783 62.6509221 31.6520541 0.183317611 31.6520541"></polygon>
    </defs>
    <g id="Page-1" stroke="none" stroke-width="1" fill="none" fill-rule="evenodd">
        <g id="Desktop-HD-Copy-2" transform="translate(-49.000000, -42.000000)">
            <g id="Group" transform="translate(49.000000, 39.000000)">
                <g id="Group-12" transform="translate(0.000000, 3.000000)">
                    <g id="Group-3" transform="translate(22.295082, 0.258852)">
                        <mask id="mask-2" fill="white">
                            <use xlink:href="#path-1"></use>
                        </mask>
                        <g id="Clip-2"></g>
                        <path d="M24.6604508,1.39426087 C27.6584426,2.83391304 29.8078279,5.09443478 31.1549385,8.12921739 C31.3479303,8.56434783 31.242377,8.76573913 30.8017008,8.88121739 C28.4481762,9.4986087 26.0974385,10.1264348 23.7442623,10.745913 C23.349918,10.849913 23.0085246,10.764 22.7277459,10.438087 C20.8647131,8.27530435 18.4888934,7.47008696 15.7692418,8.2266087 C12.7580123,9.06452174 10.5218852,10.9532174 9.50432377,13.9834783 C8.55434426,16.812 8.68463115,19.5493913 10.8758197,21.8405217 C13.4139754,24.4944348 18.0220902,24.3991304 20.8622746,21.6954783 C21.5161475,21.0732174 22.0724795,20.3723478 22.5560041,19.6078261 C22.393668,19.3330435 22.1344877,19.462087 21.93,19.4610435 C19.6667008,19.4502609 17.4030533,19.4613913 15.1397541,19.4513043 C13.855,19.4453913 13.5602869,19.022087 14.0845697,17.8429565 C14.6844467,16.4947826 15.3609631,15.1806957 15.988709,13.8443478 C16.3098975,13.1605217 16.8634426,13.0137391 17.5601639,13.0165217 C21.564918,13.0321739 25.5696721,13.0113043 29.5740779,13.0377391 C30.1861475,13.041913 30.438709,12.8613913 30.6825615,12.2735652 C33.251373,6.08052174 37.7295492,2.148 44.4121516,0.864521739 C48.5029508,0.0784347826 52.4585861,0.298956522 56.0860656,2.548 C59.8845902,4.90347826 62.0280533,8.26521739 62.5488525,12.7866087 C63.6803279,22.6081739 55.2141189,30.5194783 46.8353484,31.5041739 C41.8544877,32.0892174 37.5264549,30.9521739 33.8240779,27.5897391 C32.096209,26.0206957 30.9609016,24.0429565 30.208791,21.6906087 C29.231291,23.7034783 27.9360861,25.3264348 26.4468443,26.7963478 C21.3165369,31.8596522 12.8719262,33.1337391 7.16508197,29.8095652 C3.07010246,27.4241739 0.86602459,23.9038261 0.280778689,19.177913 C-0.709959016,11.174087 5.99215164,2.54626087 14.0417213,0.681217391 C17.6650205,-0.158086957 21.2193443,-0.25826087 24.6604508,1.39426087 Z M50.9308504,8.93471304 C48.944498,7.7861913 46.8741906,7.83801739 44.7202766,8.48810435 C41.1903381,9.55314783 38.3201947,13.2759304 38.3212392,16.9329739 C38.3222848,20.7941913 41.2795184,23.7152348 45.3110963,23.8383652 C49.0239242,23.9514087 52.9987193,20.8842783 53.9675102,17.158713 C54.860707,13.722887 53.7013627,10.5371478 50.9308504,8.93471304 Z" id="Combined-Shape" fill="#FFFFFF" mask="url(#mask-2)"></path>
                    </g>
                    <path d="M6.96721311e-05,13.5389913 C0.473491803,12.7494261 0.91242623,12.1706435 2.04390164,12.1842087 C7.86465984,12.2541217 13.6868115,12.2120348 19.5082664,12.2311652 C19.7785943,12.2322087 20.3450287,11.9692522 20.2927746,12.5341217 C20.2520164,12.979687 20.23425,13.6461217 19.4713402,13.6527304 C19.2975082,13.6544696 19.1236762,13.6551652 18.9498443,13.655513 C12.9545574,13.6662957 6.95927049,13.6784696 0.963983607,13.6826435 C0.662303279,13.6826435 0.336934426,13.7814261 6.96721311e-05,13.5389913" id="Fill-4" fill="#FFFFFF"></path>
                    <path d="M13.9185061,9.92605217 C11.5998176,9.92605217 9.28078074,9.92918261 6.96174385,9.92118261 C6.74367008,9.92048696 6.44129303,10.0370087 6.3273791,9.79005217 C6.22008402,9.5570087 6.50434631,9.39909565 6.61094467,9.20466087 C6.97080123,8.54970435 7.50205123,8.36709565 8.25590369,8.37405217 C12.6034447,8.41335652 16.9516824,8.38587826 21.2992234,8.40570435 C21.6653504,8.40744348 22.1495717,8.15457391 22.3962111,8.59526957 C22.548793,8.86796522 21.5329734,9.94309565 21.1358422,9.9517913 C20.3537725,9.96848696 19.5710061,9.95422609 18.7882398,9.95387826 C17.1648791,9.95353043 15.5418668,9.95387826 13.9185061,9.95387826 L13.9185061,9.92605217 Z" id="Fill-6" fill="#FFFFFF"></path>
                    <path d="M9.97732787,17.4815652 C10.5834754,15.945913 10.5834754,15.9455652 12.0256885,15.9455652 C14.1984139,15.9455652 16.3714877,15.9431304 18.5442131,15.9476522 C19.0343566,15.9486957 19.5394795,15.8686957 19.5015082,16.6732174 C19.4666721,17.412 19.1886803,17.553913 18.4780246,17.5351304 C15.9879426,17.4676522 13.4957705,17.492 11.0039467,17.4815652 C10.688332,17.4805217 10.3727172,17.4815652 9.97732787,17.4815652" id="Fill-8" fill="#FFFFFF"></path>
                </g>
                <text id="PHERENCE" font-family="Roboto-BoldItalic, Roboto" font-size="32" font-style="italic" font-weight="bold" letter-spacing="1" fill="#FFFFFF">
                    <tspan x="90" y="30">PHERENCE</tspan>
                </text>
            </g>
        </g>
    </g>
</svg>